<svg id="Layer_1" data-name="Layer 1" xmlns="http://www.w3.org/2000/svg" viewBox="0 0 48 48"><defs><style>.cls-1{fill:#333;}</style></defs><path class="cls-1" d="M24,34.3a1.92,1.92,0,0,0,1.45-.63,2,2,0,0,0,.6-1.47V26.05H32.2a2,2,0,0,0,1.47-.6,2,2,0,0,0,0-2.9A2,2,0,0,0,32.2,22H26.05V15.8a2.07,2.07,0,0,0-.6-1.48,2,2,0,0,0-2.9,0A2.07,2.07,0,0,0,22,15.8V22H15.8a2.07,2.07,0,0,0-1.48.6,2,2,0,0,0,0,2.9,2.07,2.07,0,0,0,1.48.6H22V32.2a2,2,0,0,0,.6,1.47A1.92,1.92,0,0,0,24,34.3Zm-14.55,9a4.69,4.69,0,0,1-4.7-4.7V9.45A4.6,4.6,0,0,1,6.13,6.1,4.48,4.48,0,0,1,9.45,4.7h29.1A4.58,4.58,0,0,1,41.9,6.1a4.58,4.58,0,0,1,1.4,3.35v29.1a4.52,4.52,0,0,1-1.4,3.33,4.63,4.63,0,0,1-3.35,1.37Zm0-4.7h29.1V9.45H9.45v29.1Zm0,0h0V9.45h0v29.1Z"/></svg>