<svg id="Layer_1" data-name="Layer 1" xmlns="http://www.w3.org/2000/svg" viewBox="0 0 48 48"><defs><style>.cls-1{fill:#333;}</style></defs><path class="cls-1" d="M28,18.9a.8.8,0,0,1,.17-.48,1.53,1.53,0,0,1,.43-.37,19.42,19.42,0,0,1,3.07-.85A17.86,17.86,0,0,1,35,16.9a19,19,0,0,1,2.15.12,17.24,17.24,0,0,1,2.05.38,1.09,1.09,0,0,1,.8,1,1.06,1.06,0,0,1-.37.92,1,1,0,0,1-.93.13,12.92,12.92,0,0,0-3.7-.5,14.74,14.74,0,0,0-2.78.25,11.77,11.77,0,0,0-2.57.8,1.33,1.33,0,0,1-1.2-.05A1.11,1.11,0,0,1,28,18.9Zm0,11a.91.91,0,0,1,.17-.5,1.36,1.36,0,0,1,.43-.4,18.34,18.34,0,0,1,3.07-.83A19.79,19.79,0,0,1,35,27.9a19,19,0,0,1,2.15.12,17.24,17.24,0,0,1,2.05.38,1.09,1.09,0,0,1,.8,1,1.06,1.06,0,0,1-.37.92,1,1,0,0,1-.93.13,12.92,12.92,0,0,0-3.7-.5,16.64,16.64,0,0,0-2.78.23,10.27,10.27,0,0,0-2.57.77,1.46,1.46,0,0,1-1.2,0A1,1,0,0,1,28,29.9Zm0-5.5a.8.8,0,0,1,.17-.48,1.53,1.53,0,0,1,.43-.37,19.42,19.42,0,0,1,3.07-.85A17.86,17.86,0,0,1,35,22.4a19,19,0,0,1,2.15.12,17.24,17.24,0,0,1,2.05.38,1.09,1.09,0,0,1,.8,1,1.06,1.06,0,0,1-.37.92,1,1,0,0,1-.93.13,12.92,12.92,0,0,0-3.7-.5,14.74,14.74,0,0,0-2.78.25,11.77,11.77,0,0,0-2.57.8,1.33,1.33,0,0,1-1.2-.05A1.11,1.11,0,0,1,28,24.4Zm-15.6,10a21.58,21.58,0,0,1,5.23.63,23,23,0,0,1,5,1.87V15.55a19,19,0,0,0-4.87-2.32,17.7,17.7,0,0,0-5.33-.83,14.49,14.49,0,0,0-3.72.48A33.28,33.28,0,0,0,5,14.05H5v21.7H5a14.11,14.11,0,0,1,3.52-1A24.66,24.66,0,0,1,12.4,34.4Zm13.2,2.5A25,25,0,0,1,30.5,35a20,20,0,0,1,5.1-.63,26.92,26.92,0,0,1,3.93.3,19.87,19.87,0,0,1,3.47.8h0V14.05h0a13,13,0,0,0-3.6-1.28,19.57,19.57,0,0,0-3.8-.37,16.67,16.67,0,0,0-5.22.83,19.38,19.38,0,0,0-4.78,2.32ZM13.8,25ZM24.25,42.1A5.12,5.12,0,0,1,23.4,42a1.84,1.84,0,0,1-.8-.33,21.93,21.93,0,0,0-4.9-2.3,16.84,16.84,0,0,0-5.3-.85A12,12,0,0,0,9.05,39q-1.65.47-3.3,1A3.22,3.22,0,0,1,2.47,40a3.13,3.13,0,0,1-1.62-2.9V14a5,5,0,0,1,.55-2.32A3.67,3.67,0,0,1,3.05,10,18.6,18.6,0,0,1,7.57,8.6a27.62,27.62,0,0,1,4.73-.4,22.16,22.16,0,0,1,6.2.87,18.78,18.78,0,0,1,5.6,2.73,19.15,19.15,0,0,1,5.5-2.7,20.8,20.8,0,0,1,6.1-.9A24.07,24.07,0,0,1,44.9,10a3.83,3.83,0,0,1,1.68,1.63A4.86,4.86,0,0,1,47.15,14V37.6a2.74,2.74,0,0,1-1.65,2.65,3.27,3.27,0,0,1-3.3-.2c-1.07-.4-2.15-.75-3.25-1a12.7,12.7,0,0,0-3.35-.45,15.1,15.1,0,0,0-5.1.87,25.15,25.15,0,0,0-4.7,2.28,1.52,1.52,0,0,1-.75.33A4.9,4.9,0,0,1,24.25,42.1Z"/></svg>