<svg id="Layer_1" data-name="Layer 1" xmlns="http://www.w3.org/2000/svg" viewBox="0 0 48 48"><defs><style>.cls-1{fill:#333;}</style></defs><path class="cls-1" d="M41.45,40.35a2.22,2.22,0,0,1-1.67-.68A2.31,2.31,0,0,1,39.1,38V5.55H15.85a2.25,2.25,0,0,1-1.67-.67A2.26,2.26,0,0,1,13.5,3.2a2.26,2.26,0,0,1,.68-1.68A2.25,2.25,0,0,1,15.85.85H39.1a4.63,4.63,0,0,1,3.35,1.37,4.52,4.52,0,0,1,1.4,3.33V38a2.33,2.33,0,0,1-2.4,2.4ZM8.9,40l11.25-4.9L31.4,40V13.3H8.9ZM7.45,45.7a2.2,2.2,0,0,1-2.23-.12,2.25,2.25,0,0,1-1.07-2V13.3A4.58,4.58,0,0,1,5.55,10,4.58,4.58,0,0,1,8.9,8.55H31.4a4.78,4.78,0,0,1,4.75,4.75V43.55a2.18,2.18,0,0,1-1,2,2.36,2.36,0,0,1-2.25.15l-12.7-5.4ZM8.9,13.3Z"/></svg>