<svg id="Layer_1" data-name="Layer 1" xmlns="http://www.w3.org/2000/svg" viewBox="0 0 48 48"><defs><style>.cls-1{fill:#333;}</style></defs><path class="cls-1" d="M9.35,39.05H11L32.7,17.2l-1.6-1.6L9.35,37.45ZM39.85,15.1l-6.6-6.6,1.9-1.95a3.32,3.32,0,0,1,2.45-1,3.75,3.75,0,0,1,2.6,1l1.65,1.6a3,3,0,0,1,1,2.55,3.84,3.84,0,0,1-1.13,2.45ZM8.1,42.6a2.32,2.32,0,0,1-2.35-2.35V37a2.19,2.19,0,0,1,.18-.87,2.22,2.22,0,0,1,.52-.78l24.7-24.7,6.65,6.55L13.1,41.9a2.21,2.21,0,0,1-.8.52,2.41,2.41,0,0,1-.9.18ZM32,16.4l-.85-.8,1.6,1.6Z"/></svg>