<svg id="Layer_1" data-name="Layer 1" xmlns="http://www.w3.org/2000/svg" viewBox="0 0 34.55 36.1"><defs><style>.cls-1{fill:#333;}</style></defs><path class="cls-1" d="M17.25,17.5A8.39,8.39,0,0,1,8.5,8.75,8.53,8.53,0,0,1,11,2.45,8.53,8.53,0,0,1,17.25,0a8.63,8.63,0,0,1,6.33,2.45,8.47,8.47,0,0,1,2.47,6.3,8.47,8.47,0,0,1-2.47,6.3A8.63,8.63,0,0,1,17.25,17.5ZM4.7,36.1a4.53,4.53,0,0,1-3.35-1.37A4.59,4.59,0,0,1,0,31.4V30.05a6.62,6.62,0,0,1,1.15-3.87A7.35,7.35,0,0,1,4.1,23.65a38.85,38.85,0,0,1,6.67-2.33,28.06,28.06,0,0,1,6.48-.77,26.84,26.84,0,0,1,6.5.8,41,41,0,0,1,6.6,2.3,6.85,6.85,0,0,1,3,2.47,6.76,6.76,0,0,1,1.15,3.93V31.4a4.54,4.54,0,0,1-1.38,3.33A4.59,4.59,0,0,1,29.8,36.1Zm0-4.7H29.8V30.25a2.6,2.6,0,0,0-.47-1.45,3,3,0,0,0-1.18-1.05,26.34,26.34,0,0,0-5.52-1.93,26.47,26.47,0,0,0-5.38-.52,27.53,27.53,0,0,0-5.42.52A23.76,23.76,0,0,0,6.3,27.75,2.82,2.82,0,0,0,5.15,28.8a2.65,2.65,0,0,0-.45,1.45ZM17.25,12.8A3.93,3.93,0,0,0,21.3,8.75a3.91,3.91,0,0,0-1.15-2.93,4,4,0,0,0-2.9-1.12,4,4,0,0,0-2.9,1.12A3.91,3.91,0,0,0,13.2,8.75a3.93,3.93,0,0,0,4.05,4.05Zm0-4.05Zm0,22.65Z"/></svg>