<svg id="Layer_1" data-name="Layer 1" xmlns="http://www.w3.org/2000/svg" viewBox="0 0 150 50"><defs><style>.cls-1{fill:#478018;}.cls-2{fill:#fff;}</style></defs><rect class="cls-1" width="150" height="50"/><path class="cls-2" d="M14.74,20.18c.87,0,1.74,0,2.61,0a.33.33,0,0,1,.33.18c.61,1.15,1.24,2.3,1.86,3.45l.14.22,1.15-2.13c.28-.51.57-1,.86-1.56,0-.08.07-.19.21-.18h2.78l-1.07,1.77L21,26.14a.83.83,0,0,0-.13.47c0,1.32,0,2.63,0,4,0,.2-.06.25-.25.24-.63,0-1.25,0-1.88,0-.24,0-.27-.07-.27-.3,0-1.29,0-2.59,0-3.88a.67.67,0,0,0-.08-.39l-3.59-5.95-.1-.07Z"/><path class="cls-2" d="M85.13,40.47l-.73-.17a2.62,2.62,0,0,1-.52-.22,1.06,1.06,0,0,1,0-1.92,3.27,3.27,0,0,1,1.81-.41,3.34,3.34,0,0,1,1.8.41,1.07,1.07,0,0,1,0,1.91c-.14.08-.28.13-.43.2s-.62.11-.92.21Zm.64-.59a4,4,0,0,0,1-.16l.17-.07a.61.61,0,0,0,.41-.55.58.58,0,0,0-.39-.53,3.26,3.26,0,0,0-1.77-.23,2,2,0,0,0-1,.29.53.53,0,0,0,0,.95,1.64,1.64,0,0,0,.3.14A3.91,3.91,0,0,0,85.77,39.88Z"/><path class="cls-2" d="M111.83,9.54h5.5a.35.35,0,0,1,.34.19q2.34,3.87,4.69,7.74c0,.05.07.1.1.16s.11-.12.15-.18q2.3-3.84,4.58-7.68a.38.38,0,0,1,.39-.23h5L131.62,11l-6.76,10.82a1,1,0,0,0-.15.51c0,2.73,0,5.47,0,8.2,0,.2,0,.27-.26.27h-4.54c-.22,0-.26-.07-.26-.27,0-2.74,0-5.48,0-8.21a.77.77,0,0,0-.13-.45L112,9.84A3.4,3.4,0,0,0,111.83,9.54Z"/><path class="cls-2" d="M56.69,24.84a2.11,2.11,0,0,1,.75,1,2,2,0,0,1-1,2.27,3.9,3.9,0,0,1-1.59.5,8.69,8.69,0,0,0-1.14.16c-.2.06-.38.14-.39.38s.19.32.38.38a10.13,10.13,0,0,0,1.45.21,5.69,5.69,0,0,1,1.62.42,1.93,1.93,0,0,1,.27,3.37,4,4,0,0,1-1.82.65,8.45,8.45,0,0,1-3.43-.2,3.14,3.14,0,0,1-1.14-.57A1.39,1.39,0,0,1,50.81,31a5.36,5.36,0,0,1,1.37-.6c-.55-.22-1-.5-.83-1.11s.68-.73,1.18-.89c0-.09-.11-.07-.17-.09a2.49,2.49,0,0,1-1.87-1.59A2.11,2.11,0,0,1,51,24.63a3.06,3.06,0,0,1,2.13-1.05c1.21-.12,2.43,0,3.65,0,.26,0,.52,0,.78,0s.24,0,.23.21c0,.37,0,.75,0,1.13,0,.15,0,.18-.18.15A3.27,3.27,0,0,0,56.69,24.84Zm-1.13,1.24a1,1,0,0,0-.31-.77,1.89,1.89,0,0,0-2.64.13,1.07,1.07,0,0,0,0,1.36,1.78,1.78,0,0,0,2.36.35A1.22,1.22,0,0,0,55.56,26.08Zm-1.43,7,.5,0a1.78,1.78,0,0,0,1.18-.54.64.64,0,0,0-.11-1,1.66,1.66,0,0,0-.56-.25,5.08,5.08,0,0,0-1.6-.1,2,2,0,0,0-1.19.41.68.68,0,0,0,.07,1.11,1.72,1.72,0,0,0,.52.23A5.24,5.24,0,0,0,54.13,33Z"/><path class="cls-2" d="M100.19,24.55a2.71,2.71,0,0,1,2.26-1.06,2.06,2.06,0,0,1,1.83,1.5,4.89,4.89,0,0,1,1.14-1.13A2.28,2.28,0,0,1,109,25.47a4.74,4.74,0,0,1,.06.75c0,1.45,0,2.89,0,4.35,0,.2,0,.25-.25.25-.51,0-1,0-1.55,0-.2,0-.25-.05-.25-.24,0-1.34,0-2.68,0-4a2.53,2.53,0,0,0-.06-.56,1,1,0,0,0-1.36-.8,1.46,1.46,0,0,0-1,1.3c0,1.36,0,2.71,0,4.08,0,.2-.06.25-.25.24h-1.59c-.18,0-.22,0-.22-.22V26.43a2.07,2.07,0,0,0-.06-.5,1,1,0,0,0-1.65-.54,1.6,1.6,0,0,0-.66,1.3c0,1.3,0,2.59,0,3.89,0,.19,0,.24-.23.23H98.39c-.2,0-.23-.06-.23-.24,0-2.25,0-4.49,0-6.74,0-.16,0-.23.21-.23H100c.15,0,.19,0,.19.19A6.24,6.24,0,0,0,100.19,24.55Z"/><path class="cls-2" d="M93.15,23.6A3.82,3.82,0,0,1,96,25a3.76,3.76,0,0,1,.76,2.69,3.58,3.58,0,0,1-3.43,3.46,4.09,4.09,0,0,1-3-.78A3.59,3.59,0,0,1,88.93,27a3.44,3.44,0,0,1,1.68-2.82A4.53,4.53,0,0,1,93.15,23.6Zm1.29,3.78a3.64,3.64,0,0,0-.27-1.53,1.35,1.35,0,0,0-1.3-.88,1.33,1.33,0,0,0-1.32.87,3.83,3.83,0,0,0,0,3,1.37,1.37,0,0,0,1.32.93,1.39,1.39,0,0,0,1.36-.91A4,4,0,0,0,94.44,27.38Z"/><path class="cls-2" d="M27,31.08A3.61,3.61,0,0,1,23.64,29a3.73,3.73,0,0,1,3-5.47,4.16,4.16,0,0,1,3.15.82,3.59,3.59,0,0,1,1.3,3.31,3.33,3.33,0,0,1-1.42,2.63A4.5,4.5,0,0,1,27,31.08ZM25.6,27.3a3.13,3.13,0,0,0,.31,1.58,1.44,1.44,0,0,0,2.65-.18,4.17,4.17,0,0,0,0-2.79,1.35,1.35,0,0,0-1.25-1,1.4,1.4,0,0,0-1.46.9A3.41,3.41,0,0,0,25.6,27.3Z"/><path class="cls-2" d="M44,24.64a3.1,3.1,0,0,1,1.49-1,2.47,2.47,0,0,1,3.3,2.26c.09,1.59,0,3.19,0,4.79,0,.12,0,.17-.17.17-.61,0-1.24,0-1.84,0-.19,0-.17-.1-.17-.22V26.41a2.45,2.45,0,0,0-.11-.71,1.06,1.06,0,0,0-1.47-.61,2.21,2.21,0,0,0-1,1,.47.47,0,0,0,0,.26v4.21c0,.19,0,.24-.23.23H42c-.17,0-.21,0-.21-.21,0-2.26,0-4.53,0-6.79,0-.18.06-.2.21-.2q.89,0,1.77,0c.17,0,.24,0,.22.21S44,24.32,44,24.64Z"/><path class="cls-2" d="M71.2,24.64a3.94,3.94,0,0,1,.92-.8,2.53,2.53,0,0,1,3.87,2c.12,1.62,0,3.24.05,4.85,0,.12-.05.15-.16.15H74c-.19,0-.17-.09-.17-.21V26.49a3.81,3.81,0,0,0,0-.59,1.06,1.06,0,0,0-1.54-.81,2,2,0,0,0-1,1,.61.61,0,0,0,0,.27v4.19c0,.18,0,.24-.23.24H69.2c-.16,0-.21,0-.21-.21,0-2.26,0-4.53,0-6.79,0-.17,0-.21.21-.21H71c.17,0,.21,0,.2.21S71.2,24.31,71.2,24.64Z"/><path class="cls-2" d="M37.62,29.78a4.35,4.35,0,0,1-1.08.88,2.52,2.52,0,0,1-3.73-2.22c0-1.55,0-3.09,0-4.64,0-.15,0-.19.19-.19.57,0,1.15,0,1.72,0,.22,0,.28,0,.28.27q0,2,0,4.05a2.32,2.32,0,0,0,0,.59,1.09,1.09,0,0,0,1.67.76,1.52,1.52,0,0,0,.9-1.43c0-1.32,0-2.65,0-4,0-.19,0-.28.25-.27.58,0,1.16,0,1.75,0,.15,0,.22,0,.22.19q0,3.4,0,6.81c0,.16,0,.19-.2.19q-.9,0-1.8,0c-.15,0-.2,0-.19-.19S37.62,30.1,37.62,29.78Z"/><path class="cls-2" d="M87.85,28.93V30.4a.17.17,0,0,1-.12.18,5.77,5.77,0,0,1-4,.15A3.54,3.54,0,0,1,81.45,27a3.69,3.69,0,0,1,3.65-3.46,6.73,6.73,0,0,1,2.52.4c.1,0,.12.09.12.2v1.5a5.72,5.72,0,0,0-1.12-.39,2.51,2.51,0,0,0-2.14.4,2.21,2.21,0,0,0-.58,2.4,2,2,0,0,0,1.83,1.32,4.7,4.7,0,0,0,1.74-.35A2.84,2.84,0,0,0,87.85,28.93Z"/><path class="cls-2" d="M62.49,24.14c0,1.24.09,2.5,0,3.74a5.2,5.2,0,0,1-2.86,4.36c-.17.09-.26.07-.35-.11a3.57,3.57,0,0,0-.36-.56c0-.07-.08-.13,0-.21a3.4,3.4,0,0,0,1.11-2,8.58,8.58,0,0,0,.19-2v-6.9c0-.22,0-.31.28-.3.6,0,1.2,0,1.8,0,.18,0,.22,0,.22.22,0,1.25,0,2.5,0,3.75Z"/><path class="cls-2" d="M135.26,28.38a2.74,2.74,0,0,1-2.68,2.69,2.71,2.71,0,1,1,2.68-2.69Z"/><path class="cls-2" d="M64.7,27.2V23.82c0-.17,0-.22.22-.22h1.77c.16,0,.23,0,.23.19q0,3.41,0,6.81c0,.15,0,.2-.19.2q-.9,0-1.8,0c-.18,0-.22-.05-.22-.22Z"/><path class="cls-2" d="M107,37.67h2c.16,0,.23,0,.23.21,0,.74,0,1.49,0,2.23,0,.17,0,.22-.21.2s-.2,0-.31,0-.13,0-.12,0c0-.35-.23-.21-.37-.22h-2.58c-.13,0-.27,0-.25.17s-.06.09-.13.09c-.53.06-.54,0-.54-.48s0-1.29,0-1.93c0-.17,0-.23.22-.22Zm0,.59c-.48,0-1,0-1.44,0-.16,0-.2.05-.2.19a5.75,5.75,0,0,1,0,.83c0,.16.06.2.2.2h2.82c.16,0,.19,0,.19-.21s0-.54,0-.83,0-.19-.19-.19C107.94,38.27,107.48,38.26,107,38.26Z"/><path class="cls-2" d="M93.74,37.06c-.07,0-.11.1-.16.14-.45.39-.45.39-.91,0A3.44,3.44,0,0,1,91.79,36c0-.07-.07-.13-.12-.25a4.43,4.43,0,0,1-.76,1.18,3,3,0,0,1-.86.66c-.13.07-.22.08-.31-.05s-.21-.25-.33-.39a2.78,2.78,0,0,0,1.3-1,3.2,3.2,0,0,0,.59-1.71c0-.15,0-.22-.2-.22s-.66,0-1,0c-.16,0-.24,0-.21-.2a1,1,0,0,0,0-.24c0-.11,0-.15.15-.15H93.3c.13,0,.17,0,.17.17a.61.61,0,0,0,0,.27c0,.14-.06.16-.17.16-.36,0-.72,0-1.07,0-.18,0-.24,0-.21.22A2.88,2.88,0,0,0,93.74,37.06Z"/><path class="cls-2" d="M103.69,37a3.13,3.13,0,0,0,2.48-1.48c-.68,0-1.29.1-1.9.13-.12,0-.3.07-.35,0a2,2,0,0,1-.07-.55c0-.09.09,0,.16,0,.73,0,1.48-.06,2.22-.12a.58.58,0,0,0,.42-.59c0-.11-.13,0-.18,0-.7,0-1.38,0-2.07,0-.25,0-.27-.11-.27-.3s0-.32.25-.31c1,0,1.88,0,2.82,0,.13,0,.24,0,.2.17A4.67,4.67,0,0,1,105.62,37a4.53,4.53,0,0,1-1.32.61c-.13,0-.21,0-.28-.09A5.65,5.65,0,0,1,103.69,37Z"/><path class="cls-2" d="M98.58,33.7c.52,0,1,0,1.56,0,.16,0,.24,0,.21.21a.6.6,0,0,0,0,.19c0,.16,0,.21-.2.21H97.7c-.19,0-.26,0-.25.25,0,.52,0,1,0,1.55,0,.15,0,.21.2.21,1,0,2-.11,3-.21.16,0,.19,0,.22.16,0,.43.07.43-.38.46-1.16.08-2.32.16-3.48.19-.16,0-.21,0-.21-.21,0-.94,0-1.87,0-2.81,0-.14,0-.19.18-.19Z"/><path class="cls-2" d="M85.9,35.3A1.64,1.64,0,0,1,84.42,37a1.62,1.62,0,0,1-1.9-1.36,1.74,1.74,0,0,1,1.17-2.11A1.7,1.7,0,0,1,85.9,35.3Zm-.66,0a1.06,1.06,0,0,0-1.39-1.14,1.22,1.22,0,0,0-.69,1.45,1,1,0,0,0,.81.86A1.06,1.06,0,0,0,85.24,35.27Z"/><path class="cls-2" d="M77.76,29.55a1.33,1.33,0,0,1,1.33-1.32,1.36,1.36,0,0,1,1.31,1.36,1.33,1.33,0,0,1-1.34,1.34A1.32,1.32,0,0,1,77.76,29.55Z"/><path class="cls-2" d="M64.59,21.28a1.2,1.2,0,0,1,1.2-1.22A1.22,1.22,0,0,1,67,21.28a1.21,1.21,0,1,1-2.42,0Z"/><path class="cls-2" d="M102.49,39.78c-.5.65-.26.66-1,.28A3.54,3.54,0,0,1,100,38.7,3.31,3.31,0,0,1,98,40.32c-.19.07-.3.07-.4-.13a2.61,2.61,0,0,0-.28-.38,3.46,3.46,0,0,0,1.34-.55,2.4,2.4,0,0,0,.91-1.55c0-.11,0-.23.18-.19s.37-.13.44.15a2.8,2.8,0,0,0,2.12,2l.1,0A.07.07,0,0,1,102.49,39.78Z"/><path class="cls-2" d="M87.94,35.56c0,.64,0,1.3,0,1.95,0,.17,0,.23-.22.22-.45,0-.45,0-.45-.43,0-.24,0-.48,0-.72s0-.19-.19-.19h-.81c-.13,0-.19,0-.19-.17,0-.38,0-.38.37-.38h0c.85,0,.85,0,.79-.86,0-.12,0-.15-.16-.15-.28,0-.56,0-.83,0s-.2,0-.2-.19c0-.39,0-.39.38-.39s.6.09.76,0,0-.49,0-.74,0-.16.17-.16c.49,0,.49,0,.49.46Z"/><path class="cls-2" d="M92.85,40.15H90.73c-.19,0-.24,0-.23-.24,0-.55,0-1.11,0-1.66,0-.16,0-.21.2-.21.45,0,.45,0,.45.44s0,.57,0,.86,0,.22.22.22c1.19,0,2.38,0,3.57,0,.31,0,.23.16.25.33s0,.28-.24.28C94.24,40.14,93.55,40.15,92.85,40.15Z"/><path class="cls-2" d="M101.37,35.64c0-.71,0-1.39,0-2.09,0-.19,0-.22.22-.22.43,0,.43,0,.44.43s0,1,0,1.47c0,.15,0,.2.19.2s.34,0,.52,0,.26,0,.25.25,0,.34-.36.34c-.59,0-.59,0-.59.57,0,.37,0,.77,0,1.15,0,.18,0,.21-.23.21-.45,0-.45,0-.45-.44C101.37,36.89,101.37,36.26,101.37,35.64Z"/><path class="cls-2" d="M95,36.07c0,.81,0,1.62,0,2.44,0,.22-.07.28-.26.25h-.2c-.16,0-.2,0-.19-.21q0-2.5,0-5c0-.19.06-.22.23-.21.43,0,.43,0,.43.44C95,34.52,95,35.3,95,36.07Z"/><path class="cls-2" d="M109.23,35.34c0,.6,0,1.21,0,1.8,0,.17,0,.22-.22.22-.43,0-.43,0-.43-.43s0-.63,0-.94c0-.15,0-.2-.19-.19-.35,0-.7,0-1,0s-.17-.15-.17-.27-.11-.3.16-.29h1c.15,0,.2,0,.2-.19,0-.51,0-1,0-1.53,0-.16,0-.21.2-.21.45,0,.45,0,.45.44S109.23,34.83,109.23,35.34Z"/></svg>