<?xml version="1.0" encoding="utf-8"?>
<!-- Generator: Adobe Illustrator 25.2.3, SVG Export Plug-In . SVG Version: 6.00 Build 0)  -->
<svg version="1.1" id="Layer_1" xmlns="http://www.w3.org/2000/svg" xmlns:xlink="http://www.w3.org/1999/xlink" x="0px" y="0px"
	 viewBox="0 0 120.51 30.93" style="enable-background:new 0 0 120.51 30.93;" xml:space="preserve">
<style type="text/css">
	.st0{fill:#020202;}
	.st1{fill:#478018;}
	.st2{fill:#C80000;}
</style>
<g>
	<path class="st0" d="M0,10.64c0.87,0,1.74,0.01,2.61,0c0.17,0,0.25,0.05,0.33,0.19c0.61,1.15,1.24,2.3,1.86,3.45
		c0.04,0.07,0.08,0.13,0.14,0.22c0.39-0.72,0.77-1.42,1.15-2.13c0.28-0.52,0.57-1.05,0.86-1.57c0.05-0.08,0.07-0.18,0.21-0.17
		c0.91,0,1.82,0,2.78,0c-0.37,0.61-0.72,1.18-1.07,1.76c-0.86,1.4-1.73,2.81-2.59,4.21c-0.09,0.15-0.13,0.3-0.13,0.48
		c0.01,1.32,0,2.63,0.01,3.95c0,0.21-0.06,0.25-0.25,0.24c-0.63-0.01-1.25-0.02-1.88,0c-0.24,0.01-0.27-0.07-0.27-0.29
		c0.01-1.3,0-2.59,0.01-3.89c0-0.13,0-0.26-0.08-0.39c-1.2-1.98-2.39-3.96-3.59-5.95C0.05,10.73,0.02,10.71,0,10.69
		C0,10.67,0,10.65,0,10.64z"/>
	<path class="st0" d="M70.39,30.93c-0.25-0.06-0.5-0.1-0.74-0.17c-0.18-0.05-0.35-0.13-0.51-0.22c-0.82-0.48-0.83-1.41-0.03-1.92
		c0.55-0.35,1.17-0.41,1.8-0.41c0.62,0,1.25,0.07,1.8,0.41c0.79,0.49,0.79,1.42,0,1.91c-0.14,0.08-0.28,0.14-0.43,0.2
		c-0.3,0.12-0.62,0.11-0.92,0.21C71.03,30.93,70.71,30.93,70.39,30.93z M71.03,30.34c0.26,0,0.65-0.04,1.03-0.16
		c0.06-0.02,0.12-0.04,0.17-0.07c0.23-0.11,0.41-0.27,0.41-0.54c0-0.26-0.17-0.42-0.39-0.53c-0.57-0.28-1.17-0.28-1.78-0.23
		c-0.35,0.03-0.69,0.08-0.99,0.28c-0.39,0.26-0.4,0.7-0.01,0.95c0.1,0.06,0.21,0.1,0.31,0.14C70.15,30.31,70.52,30.34,71.03,30.34z"
		/>
	<path class="st1" d="M97.09,0.01c0.13,0,0.21,0,0.28,0c1.74,0,3.48,0,5.22,0c0.16,0,0.25,0.05,0.34,0.19
		c1.56,2.58,3.12,5.16,4.69,7.74c0.03,0.05,0.07,0.1,0.1,0.16c0.09-0.03,0.11-0.12,0.15-0.18c1.53-2.56,3.06-5.12,4.58-7.68
		c0.1-0.16,0.19-0.24,0.39-0.23c1.56,0.01,3.12,0.01,4.68,0.01c0.08,0,0.16,0,0.28,0c-0.32,0.52-0.62,1-0.92,1.48
		c-2.25,3.6-4.51,7.21-6.76,10.81c-0.1,0.16-0.15,0.33-0.15,0.52c0.01,2.73,0,5.46,0.01,8.19c0,0.2-0.04,0.27-0.26,0.27
		c-1.51-0.01-3.03-0.01-4.54,0c-0.22,0-0.26-0.07-0.26-0.27c0.01-2.74,0-5.48,0.01-8.21c0-0.17-0.04-0.31-0.13-0.45
		c-2.51-4.02-5.02-8.04-7.53-12.06C97.21,0.2,97.16,0.13,97.09,0.01z"/>
	<path class="st0" d="M41.95,15.3c0.36,0.3,0.61,0.61,0.74,1.01c0.26,0.82-0.14,1.75-0.96,2.27c-0.49,0.31-1.03,0.42-1.59,0.5
		c-0.38,0.05-0.77,0.06-1.14,0.16c-0.2,0.06-0.38,0.14-0.39,0.38c0,0.24,0.19,0.32,0.38,0.38c0.47,0.14,0.97,0.14,1.45,0.21
		c0.56,0.08,1.1,0.18,1.62,0.42c1.5,0.71,1.42,2.58,0.27,3.37c-0.55,0.38-1.17,0.57-1.82,0.65c-1.15,0.14-2.3,0.13-3.43-0.2
		c-0.41-0.12-0.8-0.29-1.14-0.57c-0.91-0.76-0.86-1.76,0.12-2.42c0.4-0.27,0.85-0.43,1.37-0.6c-0.55-0.22-0.95-0.5-0.83-1.11
		c0.12-0.64,0.68-0.73,1.18-0.89c-0.03-0.09-0.11-0.07-0.17-0.09c-0.86-0.25-1.58-0.69-1.87-1.59c-0.25-0.79,0.02-1.48,0.53-2.08
		c0.55-0.65,1.29-0.97,2.13-1.05c1.21-0.12,2.43-0.03,3.65-0.05c0.26-0.01,0.52,0.01,0.78,0c0.16-0.01,0.24,0.02,0.23,0.21
		c-0.02,0.37-0.01,0.75,0,1.13c0,0.15-0.04,0.18-0.18,0.15C42.6,15.39,42.31,15.31,41.95,15.3z M40.82,16.55
		c0-0.31-0.1-0.55-0.31-0.77c-0.66-0.69-2.05-0.62-2.64,0.13c-0.33,0.41-0.34,0.93-0.02,1.36c0.51,0.69,1.62,0.86,2.36,0.35
		C40.58,17.36,40.81,17.02,40.82,16.55z M39.38,23.5c0.16-0.01,0.33-0.01,0.5-0.03c0.45-0.07,0.88-0.18,1.19-0.54
		c0.28-0.32,0.23-0.73-0.11-0.98c-0.17-0.12-0.36-0.2-0.56-0.25c-0.53-0.13-1.07-0.14-1.6-0.1c-0.43,0.04-0.85,0.11-1.19,0.41
		c-0.37,0.33-0.35,0.83,0.06,1.11c0.16,0.11,0.34,0.18,0.53,0.23C38.59,23.47,38.98,23.47,39.38,23.5z"/>
	<path class="st0" d="M85.44,15.01c0.64-0.7,1.33-1.12,2.26-1.05c0.97,0.07,1.49,0.66,1.84,1.5c0.35-0.44,0.68-0.85,1.14-1.13
		c1.48-0.91,3.25-0.11,3.53,1.6c0.04,0.25,0.06,0.5,0.06,0.75c0,1.45-0.01,2.9,0.01,4.35c0,0.21-0.05,0.25-0.25,0.25
		c-0.52-0.01-1.04-0.01-1.56,0c-0.19,0.01-0.25-0.04-0.25-0.24c0.01-1.34,0-2.68,0.01-4.03c0-0.19-0.02-0.37-0.06-0.56
		c-0.13-0.68-0.69-1.01-1.36-0.8c-0.52,0.17-0.95,0.75-0.95,1.3c0,1.36-0.01,2.72,0.01,4.08c0,0.21-0.06,0.25-0.25,0.24
		c-0.53-0.01-1.06-0.01-1.59,0c-0.18,0-0.22-0.05-0.22-0.22c0-1.39,0-2.77,0-4.16c0-0.17-0.02-0.34-0.06-0.5
		c-0.2-0.79-1.02-1.07-1.65-0.54c-0.39,0.33-0.67,0.72-0.66,1.3c0.04,1.3,0.01,2.59,0.02,3.89c0,0.19-0.04,0.24-0.23,0.23
		c-0.53-0.01-1.06-0.01-1.59,0c-0.2,0.01-0.23-0.06-0.23-0.24c0.01-2.25,0.01-4.49,0-6.74c0-0.16,0.03-0.23,0.21-0.23
		c0.55,0.01,1.09,0.01,1.64,0c0.15,0,0.2,0.04,0.19,0.19C85.43,14.49,85.44,14.72,85.44,15.01z"/>
	<path class="st0" d="M78.4,14.07c0.95,0.03,2.06,0.39,2.87,1.39c0.64,0.78,0.81,1.71,0.76,2.69c-0.12,2.36-1.93,3.3-3.43,3.45
		c-1.11,0.11-2.14-0.09-3.03-0.77c-1.11-0.84-1.49-2.01-1.39-3.35c0.09-1.21,0.63-2.18,1.68-2.82C76.54,14.24,77.3,14.06,78.4,14.07
		z M79.69,17.84c0.01-0.52-0.05-1.03-0.26-1.52c-0.25-0.57-0.69-0.88-1.31-0.88c-0.62,0-1.09,0.3-1.32,0.87
		c-0.41,0.98-0.42,2-0.03,2.99c0.23,0.58,0.68,0.92,1.32,0.93c0.64,0.01,1.1-0.32,1.36-0.91C79.64,18.86,79.7,18.36,79.69,17.84z"/>
	<path class="st0" d="M12.29,21.54c-1.4-0.05-2.7-0.59-3.39-2.06c-1.03-2.22-0.06-5.13,3.04-5.47c1.16-0.13,2.23,0.1,3.15,0.82
		c1.08,0.84,1.39,2.01,1.3,3.31c-0.08,1.08-0.51,2-1.42,2.63C14.2,21.31,13.35,21.54,12.29,21.54z M10.86,17.76
		c-0.01,0.57,0.05,1.1,0.31,1.58c0.31,0.58,0.79,0.87,1.45,0.8c0.6-0.06,1-0.41,1.2-0.97c0.33-0.93,0.33-1.87,0.02-2.8
		c-0.19-0.59-0.6-0.96-1.25-1.01c-0.68-0.04-1.18,0.27-1.46,0.9C10.91,16.75,10.85,17.26,10.86,17.76z"/>
	<path class="st0" d="M29.3,15.1c0.44-0.49,0.89-0.88,1.49-1.04c1.51-0.4,3.2,0.33,3.3,2.27c0.08,1.59,0.01,3.18,0.03,4.78
		c0,0.13-0.04,0.17-0.17,0.17c-0.62-0.01-1.24-0.01-1.85,0c-0.19,0-0.17-0.1-0.17-0.22c0-1.4,0-2.79,0-4.19
		c0-0.24-0.04-0.48-0.11-0.71c-0.21-0.61-0.84-0.87-1.46-0.61c-0.48,0.2-0.78,0.58-1.03,1.02c-0.05,0.08-0.03,0.18-0.03,0.26
		c0,1.4,0,2.81,0,4.21c0,0.19-0.04,0.24-0.23,0.23c-0.59-0.01-1.18-0.01-1.77,0c-0.17,0-0.21-0.04-0.21-0.21
		c0.01-2.26,0.01-4.53,0-6.79c0-0.18,0.06-0.2,0.21-0.2c0.59,0.01,1.18,0.01,1.77,0c0.17,0,0.24,0.03,0.22,0.21
		C29.29,14.54,29.3,14.79,29.3,15.1z"/>
	<path class="st0" d="M56.46,15.1c0.31-0.34,0.59-0.6,0.92-0.8c1.28-0.77,3.69-0.36,3.87,1.97c0.12,1.62,0.02,3.24,0.05,4.85
		c0,0.12-0.05,0.15-0.16,0.15c-0.63,0-1.25-0.01-1.88,0c-0.19,0-0.17-0.09-0.17-0.21c0-1.37,0-2.74,0-4.11
		c0-0.2-0.02-0.39-0.05-0.59c-0.15-0.76-0.83-1.12-1.54-0.81c-0.47,0.2-0.78,0.58-1.01,1.03c-0.04,0.09-0.03,0.17-0.03,0.26
		c0,1.4,0,2.79,0,4.19c0,0.18-0.03,0.24-0.23,0.24c-0.59-0.01-1.18-0.01-1.77,0c-0.16,0-0.21-0.03-0.21-0.2
		c0.01-2.26,0.01-4.53,0-6.79c0-0.17,0.04-0.21,0.21-0.21c0.6,0.01,1.2,0.01,1.8,0c0.17,0,0.21,0.05,0.2,0.21
		C56.45,14.53,56.46,14.77,56.46,15.1z"/>
	<path class="st0" d="M22.88,20.25c-0.36,0.36-0.68,0.67-1.08,0.87c-1.75,0.87-3.7-0.28-3.73-2.22c-0.02-1.55-0.01-3.09-0.01-4.64
		c0-0.15,0.04-0.19,0.19-0.19c0.57,0.01,1.15,0.01,1.72,0c0.22-0.01,0.28,0.04,0.28,0.27c-0.01,1.35-0.01,2.7,0,4.05
		c0,0.2,0,0.4,0.05,0.59c0.17,0.81,0.93,1.16,1.67,0.76c0.55-0.3,0.91-0.74,0.9-1.43c-0.02-1.32,0-2.65-0.01-3.97
		c0-0.19,0.03-0.28,0.25-0.27c0.58,0.02,1.16,0.01,1.75,0c0.15,0,0.22,0.01,0.22,0.19c-0.01,2.27-0.01,4.54,0,6.81
		c0,0.16-0.05,0.19-0.2,0.19c-0.6-0.01-1.2-0.01-1.8,0c-0.15,0-0.2-0.04-0.19-0.19C22.89,20.82,22.88,20.57,22.88,20.25z"/>
	<path class="st0" d="M73.11,19.4c0,0.51,0,0.99,0,1.47c0,0.1-0.04,0.15-0.12,0.18c-1.3,0.46-2.62,0.62-3.95,0.15
		c-1.56-0.55-2.45-2.01-2.33-3.69c0.14-1.94,1.59-3.34,3.65-3.46c0.87-0.05,1.7,0.13,2.51,0.4c0.1,0.03,0.13,0.09,0.13,0.2
		c0,0.49,0,0.98,0,1.5c-0.38-0.16-0.73-0.31-1.12-0.39c-0.77-0.15-1.49-0.1-2.14,0.4c-0.64,0.5-0.88,1.51-0.58,2.4
		c0.27,0.8,0.99,1.29,1.83,1.32c0.61,0.02,1.18-0.15,1.74-0.35C72.86,19.49,72.97,19.45,73.11,19.4z"/>
	<path class="st0" d="M47.75,14.61c0,1.24,0.08,2.49-0.02,3.73c-0.15,1.94-1.13,3.42-2.86,4.36c-0.17,0.09-0.26,0.07-0.35-0.11
		c-0.1-0.2-0.24-0.37-0.36-0.56c-0.04-0.07-0.08-0.12,0.01-0.2c0.67-0.52,0.92-1.26,1.11-2.04c0.15-0.64,0.19-1.3,0.19-1.96
		c0-2.3,0-4.6,0-6.9c0-0.22,0.03-0.31,0.28-0.3c0.6,0.02,1.2,0.01,1.8,0c0.18,0,0.22,0.05,0.22,0.22
		C47.75,12.1,47.76,13.36,47.75,14.61C47.76,14.61,47.75,14.61,47.75,14.61z"/>
	<path class="st2" d="M120.51,18.84c0,1.46-1.22,2.68-2.68,2.69c-1.5,0.01-2.7-1.21-2.7-2.74c0-1.49,1.2-2.66,2.7-2.68
		C119.26,16.1,120.53,17.33,120.51,18.84z"/>
	<path class="st0" d="M49.96,17.67c0-1.13,0-2.25,0-3.38c0-0.17,0.04-0.22,0.22-0.22c0.59,0.01,1.18,0.01,1.77,0
		c0.15,0,0.22,0.01,0.22,0.19c-0.01,2.27-0.01,4.54,0,6.81c0,0.15-0.04,0.19-0.19,0.19c-0.6-0.01-1.2-0.01-1.8,0
		c-0.18,0-0.22-0.05-0.22-0.22C49.96,19.92,49.96,18.8,49.96,17.67z"/>
	<path class="st0" d="M92.25,28.14c0.67,0,1.34,0,2.02,0c0.16,0,0.23,0.02,0.23,0.21c-0.01,0.74-0.01,1.49,0,2.23
		c0,0.17-0.05,0.22-0.21,0.2c-0.11-0.01-0.21,0-0.32,0c-0.04,0-0.12,0-0.11-0.04c0.03-0.35-0.24-0.21-0.38-0.22
		c-0.86-0.01-1.72-0.01-2.58,0c-0.12,0-0.27-0.04-0.25,0.17c0.01,0.09-0.06,0.09-0.13,0.09c-0.53,0.06-0.54,0.05-0.54-0.48
		c0-0.64,0.01-1.29,0-1.93c0-0.17,0.03-0.23,0.22-0.22C90.87,28.15,91.56,28.14,92.25,28.14z M92.28,28.73c-0.48,0-0.97,0.01-1.45,0
		c-0.15,0-0.2,0.04-0.19,0.19c0.01,0.28,0.01,0.55,0,0.83c-0.01,0.16,0.05,0.19,0.2,0.19c0.94-0.01,1.88-0.01,2.82,0
		c0.16,0,0.19-0.05,0.19-0.2c-0.01-0.28-0.01-0.55,0-0.83c0.01-0.16-0.05-0.19-0.2-0.19C93.19,28.74,92.73,28.73,92.28,28.73z"/>
	<path class="st0" d="M79,27.52c-0.07,0.06-0.11,0.1-0.16,0.15c-0.45,0.39-0.45,0.39-0.91,0.01c-0.39-0.33-0.66-0.74-0.88-1.2
		c-0.03-0.07-0.07-0.14-0.12-0.25c-0.21,0.45-0.45,0.84-0.76,1.18c-0.25,0.27-0.54,0.49-0.86,0.66c-0.13,0.07-0.22,0.08-0.31-0.06
		c-0.09-0.13-0.21-0.25-0.33-0.39c0.53-0.21,0.97-0.5,1.3-0.95c0.38-0.51,0.54-1.09,0.59-1.72c0.01-0.15-0.02-0.22-0.2-0.22
		c-0.33,0.02-0.66,0-0.99,0.01c-0.16,0.01-0.24-0.02-0.21-0.2c0.01-0.08,0.01-0.16,0-0.24c-0.01-0.11,0.03-0.15,0.15-0.15
		c1.08,0,2.17,0,3.25,0c0.13,0,0.17,0.04,0.16,0.17c-0.01,0.09-0.01,0.18,0,0.27c0.02,0.14-0.05,0.16-0.17,0.16
		c-0.36-0.01-0.72,0.01-1.07-0.01c-0.18-0.01-0.23,0.05-0.21,0.22C77.4,26.12,77.88,27.03,79,27.52z"/>
	<path class="st0" d="M88.94,27.5c1.05-0.13,1.89-0.55,2.49-1.49c-0.68,0.05-1.29,0.1-1.9,0.14c-0.12,0.01-0.31,0.07-0.35-0.02
		c-0.07-0.16-0.06-0.37-0.07-0.55c0-0.09,0.09-0.06,0.15-0.06c0.74,0,1.48-0.06,2.22-0.11c0.21-0.01,0.48-0.39,0.42-0.59
		c-0.03-0.11-0.12-0.05-0.18-0.05c-0.69,0-1.38-0.02-2.07,0c-0.25,0.01-0.27-0.1-0.26-0.3c0.01-0.17-0.04-0.32,0.25-0.31
		c0.94,0.02,1.88,0.01,2.82,0.01c0.13,0,0.23-0.01,0.19,0.17c-0.23,1.25-0.7,2.37-1.78,3.14c-0.4,0.28-0.85,0.47-1.32,0.61
		c-0.13,0.04-0.21,0.03-0.28-0.09C89.17,27.84,89.06,27.69,88.94,27.5z"/>
	<path class="st0" d="M83.84,24.17c0.52,0,1.04,0.01,1.56,0c0.16,0,0.24,0.03,0.21,0.2c-0.01,0.06-0.01,0.13,0,0.19
		c0.03,0.16-0.03,0.21-0.2,0.21c-0.82-0.01-1.63,0-2.45-0.01c-0.2,0-0.26,0.04-0.25,0.25c0.02,0.52,0.01,1.04,0,1.56
		c0,0.15,0.04,0.2,0.19,0.2c1-0.02,2-0.1,3-0.2c0.16-0.02,0.19,0.01,0.22,0.16c0.06,0.43,0.07,0.43-0.37,0.46
		c-1.16,0.08-2.32,0.16-3.48,0.19c-0.16,0-0.21-0.04-0.21-0.21c0.01-0.94,0.01-1.88,0-2.82c0-0.14,0.04-0.18,0.18-0.18
		C82.76,24.17,83.3,24.17,83.84,24.17z"/>
	<path class="st0" d="M71.15,25.76c0,0.94-0.59,1.64-1.47,1.74c-0.97,0.11-1.69-0.4-1.9-1.36c-0.21-0.94,0.32-1.92,1.17-2.12
		C70.29,23.72,71.2,24.63,71.15,25.76z M70.5,25.74c0-0.86-0.63-1.38-1.39-1.15c-0.52,0.16-0.83,0.82-0.69,1.45
		c0.11,0.47,0.41,0.8,0.8,0.86C69.96,27.03,70.5,26.53,70.5,25.74z"/>
	<path class="st0" d="M63.02,20.01c0.01-0.73,0.6-1.33,1.33-1.32c0.71,0.01,1.31,0.63,1.31,1.36c0,0.75-0.6,1.34-1.34,1.34
		C63.57,21.38,63.01,20.79,63.02,20.01z"/>
	<path class="st0" d="M49.85,11.75c0-0.69,0.52-1.23,1.2-1.23c0.67,0,1.21,0.54,1.22,1.22c0,0.68-0.56,1.26-1.22,1.25
		C50.38,12.99,49.85,12.44,49.85,11.75z"/>
	<path class="st0" d="M87.75,30.25c-0.5,0.65-0.27,0.66-1.06,0.27c-0.61-0.3-1.11-0.74-1.49-1.35c-0.42,0.82-1.08,1.31-1.91,1.61
		c-0.19,0.07-0.3,0.07-0.4-0.12c-0.07-0.13-0.17-0.24-0.28-0.39c0.49-0.11,0.94-0.25,1.33-0.55c0.51-0.39,0.8-0.92,0.91-1.55
		c0.02-0.11,0.03-0.23,0.18-0.19c0.15,0.04,0.37-0.13,0.44,0.15c0.28,1.12,1.06,1.73,2.12,2.05c0.03,0.01,0.07,0.02,0.1,0.03
		C87.71,30.22,87.73,30.23,87.75,30.25z"/>
	<path class="st0" d="M73.19,26.02c0,0.65-0.01,1.31,0,1.96c0,0.17-0.04,0.23-0.22,0.22c-0.44-0.01-0.44,0-0.44-0.43
		c0-0.24-0.01-0.48,0-0.72c0.01-0.16-0.05-0.19-0.2-0.19c-0.27,0.01-0.54,0-0.81,0.01c-0.13,0-0.19-0.02-0.19-0.17
		c0-0.38-0.01-0.38,0.38-0.38c0.01,0,0.02,0,0.03,0c0.85,0,0.85,0,0.79-0.86c-0.01-0.12-0.05-0.15-0.16-0.15
		c-0.28,0.01-0.56-0.01-0.83,0.01c-0.15,0.01-0.2-0.03-0.2-0.19c0-0.39-0.01-0.39,0.38-0.39c0.26,0,0.6,0.09,0.76-0.03
		c0.17-0.13,0.04-0.49,0.05-0.74c0-0.13,0.04-0.16,0.17-0.16c0.49-0.01,0.49-0.02,0.49,0.46C73.19,24.84,73.19,25.43,73.19,26.02z"
		/>
	<path class="st0" d="M78.11,30.61c-0.71,0-1.41-0.01-2.12,0c-0.19,0-0.24-0.05-0.23-0.24c0.01-0.55,0.01-1.11,0-1.66
		c0-0.16,0.03-0.21,0.2-0.21c0.45,0.01,0.45,0,0.45,0.44c0,0.29,0.01,0.57,0,0.86c-0.01,0.18,0.05,0.22,0.22,0.22
		c1.19-0.01,2.38,0.01,3.57-0.01c0.31-0.01,0.23,0.16,0.25,0.33c0.01,0.18-0.01,0.28-0.24,0.28C79.5,30.6,78.8,30.61,78.11,30.61z"
		/>
	<path class="st0" d="M86.63,26.1c0-0.7,0.01-1.39,0-2.09c0-0.18,0.05-0.22,0.22-0.22c0.43,0.01,0.43,0,0.44,0.43
		c0,0.49,0.02,0.98,0.02,1.47c0,0.15,0.03,0.21,0.19,0.2c0.17-0.01,0.34,0.01,0.51-0.01c0.2-0.02,0.26,0.05,0.25,0.25
		c-0.02,0.34,0,0.34-0.36,0.34c-0.58,0-0.58,0-0.58,0.57c0,0.38-0.01,0.77,0,1.15c0.01,0.18-0.05,0.22-0.23,0.22
		c-0.45-0.01-0.45,0-0.45-0.44C86.63,27.35,86.63,26.73,86.63,26.1z"/>
	<path class="st0" d="M80.24,26.53c0,0.81-0.01,1.63,0.01,2.44c0,0.22-0.07,0.28-0.27,0.25c-0.06-0.01-0.13-0.01-0.19,0
		c-0.17,0.03-0.21-0.04-0.2-0.21c0.01-1.67,0.01-3.34,0-5.01c0-0.19,0.06-0.22,0.23-0.21c0.43,0.01,0.43,0,0.43,0.44
		C80.24,24.99,80.24,25.76,80.24,26.53z"/>
	<path class="st0" d="M94.49,25.81c0,0.6-0.01,1.2,0,1.8c0,0.17-0.04,0.22-0.22,0.22c-0.43-0.01-0.43,0-0.43-0.43
		c0-0.31-0.01-0.63,0-0.94c0.01-0.15-0.04-0.2-0.19-0.19c-0.35,0.01-0.7-0.01-1.05,0.01c-0.24,0.01-0.17-0.15-0.17-0.27
		c0.01-0.11-0.11-0.3,0.16-0.29c0.35,0.01,0.7,0,1.05,0.01c0.15,0,0.2-0.04,0.2-0.19c-0.01-0.51,0-1.02-0.01-1.53
		c0-0.16,0.03-0.21,0.2-0.21c0.45,0.01,0.45,0,0.45,0.44C94.49,24.76,94.49,25.29,94.49,25.81z"/>
</g>
</svg>
