<svg id="Layer_1" data-name="Layer 1" xmlns="http://www.w3.org/2000/svg" viewBox="0 0 23.42 21.52"><defs><style>.cls-1{fill:#478018;}.cls-2{fill:#c80000;}</style></defs><path class="cls-1" d="M0,0H5.5A.35.35,0,0,1,5.84.2q2.34,3.87,4.69,7.74s.07.1.1.16.11-.12.15-.18q2.3-3.84,4.58-7.68A.38.38,0,0,1,15.75,0h5L19.79,1.5,13,12.31a1,1,0,0,0-.15.52c0,2.73,0,5.46,0,8.19,0,.2,0,.27-.26.27H8.09c-.22,0-.26-.07-.26-.27,0-2.74,0-5.48,0-8.21a.79.79,0,0,0-.13-.45L.18.3Z" transform="translate(0 -0.01)"/><path class="cls-2" d="M23.42,18.84A2.69,2.69,0,1,1,18,18.79a2.69,2.69,0,1,1,5.38.05Z" transform="translate(0 -0.01)"/></svg>