<svg id="Layer_1" data-name="Layer 1" xmlns="http://www.w3.org/2000/svg" viewBox="0 0 120.51 30.93"><path d="M0,10.64H2.61a.32.32,0,0,1,.33.19c.61,1.15,1.24,2.3,1.86,3.45l.14.22,1.15-2.13L7,10.8c0-.08.07-.18.21-.17H9.94L8.87,12.39,6.28,16.6a.89.89,0,0,0-.13.48c0,1.32,0,2.63,0,4,0,.21-.06.25-.25.24-.63,0-1.25,0-1.88,0-.24,0-.27-.07-.27-.29,0-1.3,0-2.59,0-3.89a.69.69,0,0,0-.08-.39L.1,10.75a.29.29,0,0,1-.1-.06Z" transform="translate(0 -0.01)"/><path d="M70.39,30.93c-.25-.06-.5-.1-.74-.17a2.31,2.31,0,0,1-.51-.22,1.06,1.06,0,0,1,0-1.92,3.23,3.23,0,0,1,1.8-.41,3.34,3.34,0,0,1,1.8.41,1.07,1.07,0,0,1,0,1.91,3.36,3.36,0,0,1-.43.2c-.3.12-.62.11-.92.21Zm.64-.59a3.6,3.6,0,0,0,1-.16l.17-.07a.6.6,0,0,0,.41-.54.59.59,0,0,0-.39-.53,3.29,3.29,0,0,0-1.78-.23,2,2,0,0,0-1,.28.53.53,0,0,0,0,.95,2.12,2.12,0,0,0,.31.14A3.62,3.62,0,0,0,71,30.34Z" transform="translate(0 -0.01)"/><path d="M97.09,0h5.5a.35.35,0,0,1,.34.19q2.34,3.87,4.69,7.74s.07.1.1.16.11-.12.15-.18q2.3-3.84,4.58-7.68a.38.38,0,0,1,.39-.23h5l-.92,1.48-6.76,10.81a1,1,0,0,0-.15.52c0,2.73,0,5.46,0,8.19,0,.2,0,.27-.26.27h-4.54c-.22,0-.26-.07-.26-.27,0-2.74,0-5.48,0-8.21a.79.79,0,0,0-.13-.45L97.27.3Z" transform="translate(0 -0.01)"/><path d="M42,15.3a2.18,2.18,0,0,1,.74,1,2,2,0,0,1-1,2.27,3.9,3.9,0,0,1-1.59.5,8.69,8.69,0,0,0-1.14.16c-.2.06-.38.14-.39.38s.19.32.38.38a10.13,10.13,0,0,0,1.45.21,5.69,5.69,0,0,1,1.62.42A1.93,1.93,0,0,1,42.33,24a4,4,0,0,1-1.82.65,8.45,8.45,0,0,1-3.43-.2,3.14,3.14,0,0,1-1.14-.57,1.39,1.39,0,0,1,.12-2.42,5.36,5.36,0,0,1,1.37-.6c-.55-.22-1-.5-.83-1.11s.68-.73,1.18-.89c0-.09-.11-.07-.17-.09a2.49,2.49,0,0,1-1.87-1.59,2.11,2.11,0,0,1,.53-2.08,3.06,3.06,0,0,1,2.13-1c1.21-.12,2.43,0,3.65-.05h.78c.16,0,.24,0,.23.21,0,.37,0,.75,0,1.13,0,.15,0,.18-.18.15A2.9,2.9,0,0,0,42,15.3Zm-1.13,1.25a1,1,0,0,0-.31-.77,1.89,1.89,0,0,0-2.64.13,1.07,1.07,0,0,0,0,1.36,1.78,1.78,0,0,0,2.36.35A1.29,1.29,0,0,0,40.82,16.55Zm-1.44,7,.5,0a1.83,1.83,0,0,0,1.19-.54A.64.64,0,0,0,41,22a1.66,1.66,0,0,0-.56-.25,5.08,5.08,0,0,0-1.6-.1,2,2,0,0,0-1.19.41.67.67,0,0,0,.06,1.11,1.67,1.67,0,0,0,.53.23A5.23,5.23,0,0,0,39.38,23.5Z" transform="translate(0 -0.01)"/><path d="M85.44,15a2.68,2.68,0,0,1,2.26-1,2.09,2.09,0,0,1,1.84,1.5,4.53,4.53,0,0,1,1.14-1.13,2.28,2.28,0,0,1,3.53,1.6,4.74,4.74,0,0,1,.06.75c0,1.45,0,2.9,0,4.35,0,.21,0,.25-.25.25q-.78,0-1.56,0c-.19,0-.25,0-.25-.24,0-1.34,0-2.68,0-4a2.67,2.67,0,0,0-.06-.56,1,1,0,0,0-1.36-.8,1.46,1.46,0,0,0-1,1.3c0,1.36,0,2.72,0,4.08,0,.21-.06.25-.25.24H88c-.18,0-.22-.05-.22-.22V16.89a2.07,2.07,0,0,0-.06-.5,1,1,0,0,0-1.65-.54,1.6,1.6,0,0,0-.66,1.3c0,1.3,0,2.59,0,3.89,0,.19,0,.24-.23.23H83.64c-.2,0-.23-.06-.23-.24,0-2.25,0-4.49,0-6.74,0-.16,0-.23.21-.23h1.64c.15,0,.2,0,.19.19S85.44,14.72,85.44,15Z" transform="translate(0 -0.01)"/><path d="M78.4,14.07A3.65,3.65,0,0,1,82,18.15,3.57,3.57,0,0,1,78.6,21.6a4.13,4.13,0,0,1-3-.77,3.59,3.59,0,0,1-1.39-3.35,3.43,3.43,0,0,1,1.68-2.82A4.47,4.47,0,0,1,78.4,14.07Zm1.29,3.77a3.61,3.61,0,0,0-.26-1.52,1.43,1.43,0,0,0-2.63,0,3.88,3.88,0,0,0,0,3,1.37,1.37,0,0,0,1.32.93,1.39,1.39,0,0,0,1.36-.91A3.66,3.66,0,0,0,79.69,17.84Z" transform="translate(0 -0.01)"/><path d="M12.29,21.54A3.61,3.61,0,0,1,8.9,19.48a3.73,3.73,0,0,1,3-5.47,4.16,4.16,0,0,1,3.15.82,3.59,3.59,0,0,1,1.3,3.31A3.33,3.33,0,0,1,15,20.77,4.43,4.43,0,0,1,12.29,21.54Zm-1.43-3.78a3.11,3.11,0,0,0,.31,1.58,1.38,1.38,0,0,0,1.45.8,1.36,1.36,0,0,0,1.2-1,4.2,4.2,0,0,0,0-2.8,1.35,1.35,0,0,0-1.25-1,1.4,1.4,0,0,0-1.46.9A3.44,3.44,0,0,0,10.86,17.76Z" transform="translate(0 -0.01)"/><path d="M29.3,15.1a3.1,3.1,0,0,1,1.49-1,2.47,2.47,0,0,1,3.3,2.27c.08,1.59,0,3.18,0,4.78,0,.13,0,.17-.17.17-.62,0-1.24,0-1.85,0-.19,0-.17-.1-.17-.22V16.87a2.45,2.45,0,0,0-.11-.71,1,1,0,0,0-1.46-.61,2.17,2.17,0,0,0-1,1,.47.47,0,0,0,0,.26V21c0,.19,0,.24-.23.23H27.3c-.17,0-.21,0-.21-.21,0-2.26,0-4.53,0-6.79,0-.18.06-.2.21-.2h1.77c.17,0,.24,0,.22.21S29.3,14.79,29.3,15.1Z" transform="translate(0 -0.01)"/><path d="M56.46,15.1a4.18,4.18,0,0,1,.92-.8,2.53,2.53,0,0,1,3.87,2c.12,1.62,0,3.24,0,4.85,0,.12,0,.15-.16.15H59.26c-.19,0-.17-.09-.17-.21V17a3.92,3.92,0,0,0-.05-.59,1.06,1.06,0,0,0-1.54-.81,2.07,2.07,0,0,0-1,1,.58.58,0,0,0,0,.26V21c0,.18,0,.24-.23.24H54.46c-.16,0-.21,0-.21-.2,0-2.26,0-4.53,0-6.79,0-.17,0-.21.21-.21h1.8c.17,0,.21,0,.2.21S56.46,14.77,56.46,15.1Z" transform="translate(0 -0.01)"/><path d="M22.88,20.25a4.3,4.3,0,0,1-1.08.87,2.52,2.52,0,0,1-3.73-2.22c0-1.55,0-3.09,0-4.64,0-.15,0-.19.19-.19H20c.22,0,.28,0,.28.27q0,2,0,4.05a2.32,2.32,0,0,0,.05.59,1.09,1.09,0,0,0,1.67.76,1.52,1.52,0,0,0,.9-1.43c0-1.32,0-2.65,0-4,0-.19,0-.28.25-.27.58,0,1.16,0,1.75,0,.15,0,.22,0,.22.19q0,3.41,0,6.81c0,.16,0,.19-.2.19q-.9,0-1.8,0c-.15,0-.2,0-.19-.19S22.88,20.57,22.88,20.25Z" transform="translate(0 -0.01)"/><path d="M73.11,19.4v1.47a.17.17,0,0,1-.12.18A5.77,5.77,0,0,1,69,21.2a3.52,3.52,0,0,1-2.33-3.69,3.69,3.69,0,0,1,3.65-3.46,6.68,6.68,0,0,1,2.51.4c.1,0,.13.09.13.2v1.5a6,6,0,0,0-1.12-.39,2.51,2.51,0,0,0-2.14.4,2.21,2.21,0,0,0-.58,2.4A2,2,0,0,0,71,19.88a4.7,4.7,0,0,0,1.74-.35Z" transform="translate(0 -0.01)"/><path d="M47.75,14.61c0,1.24.08,2.49,0,3.73a5.2,5.2,0,0,1-2.86,4.36c-.17.09-.26.07-.35-.11a6.65,6.65,0,0,0-.36-.56c0-.07-.08-.12,0-.2a3.4,3.4,0,0,0,1.11-2,8.58,8.58,0,0,0,.19-2v-6.9c0-.22,0-.31.28-.3.6,0,1.2,0,1.8,0,.18,0,.22,0,.22.22,0,1.25,0,2.51,0,3.76Z" transform="translate(0 -0.01)"/><path d="M120.51,18.84a2.69,2.69,0,1,1-5.38-.05,2.69,2.69,0,1,1,5.38.05Z" transform="translate(0 -0.01)"/><path d="M50,17.67V14.29c0-.17,0-.22.22-.22H52c.15,0,.22,0,.22.19q0,3.41,0,6.81c0,.15,0,.19-.19.19q-.9,0-1.8,0c-.18,0-.22-.05-.22-.22Z" transform="translate(0 -0.01)"/><path d="M92.25,28.14h2c.16,0,.23,0,.23.21,0,.74,0,1.49,0,2.23,0,.17,0,.22-.21.2s-.21,0-.32,0-.12,0-.11,0c0-.35-.24-.21-.38-.22H90.9c-.12,0-.27,0-.25.17s-.06.09-.13.09c-.53.06-.54,0-.54-.48s0-1.29,0-1.93c0-.17,0-.23.22-.22Zm0,.59H90.83c-.15,0-.2,0-.19.19s0,.55,0,.83,0,.19.2.19q1.41,0,2.82,0c.16,0,.19-.05.19-.2s0-.55,0-.83,0-.19-.2-.19C93.19,28.74,92.73,28.73,92.28,28.73Z" transform="translate(0 -0.01)"/><path d="M79,27.52l-.16.15c-.45.39-.45.39-.91,0a3.49,3.49,0,0,1-.88-1.2l-.12-.25a4.6,4.6,0,0,1-.76,1.18,3.24,3.24,0,0,1-.86.66c-.13.07-.22.08-.31-.06s-.21-.25-.33-.39a2.83,2.83,0,0,0,1.3-.95A3.21,3.21,0,0,0,76.56,25c0-.15,0-.22-.2-.22s-.66,0-1,0c-.16,0-.24,0-.21-.2a1,1,0,0,0,0-.24c0-.11,0-.15.15-.15h3.25c.13,0,.17,0,.16.17a1.22,1.22,0,0,0,0,.27c0,.14,0,.16-.17.16-.36,0-.72,0-1.07,0-.18,0-.23.05-.21.22A2.89,2.89,0,0,0,79,27.52Z" transform="translate(0 -0.01)"/><path d="M88.94,27.5A3.2,3.2,0,0,0,91.43,26l-1.9.14c-.12,0-.31.07-.35,0a1.66,1.66,0,0,1-.07-.55c0-.09.09-.06.15-.06.74,0,1.48-.06,2.22-.11a.59.59,0,0,0,.42-.59c0-.11-.12-.05-.18-.05-.69,0-1.38,0-2.07,0-.25,0-.27-.1-.26-.3s0-.32.25-.31c.94,0,1.88,0,2.82,0,.13,0,.23,0,.19.17a4.63,4.63,0,0,1-1.78,3.14,4.53,4.53,0,0,1-1.32.61c-.13,0-.21,0-.28-.09Z" transform="translate(0 -0.01)"/><path d="M83.84,24.17H85.4c.16,0,.24,0,.21.2a.61.61,0,0,0,0,.19c0,.16,0,.21-.2.21H83c-.2,0-.26,0-.25.25,0,.52,0,1,0,1.56,0,.15,0,.2.19.2,1,0,2-.1,3-.2.16,0,.19,0,.22.16.06.43.07.43-.37.46-1.16.08-2.32.16-3.48.19-.16,0-.21,0-.21-.21q0-1.41,0-2.82c0-.14,0-.18.18-.18Z" transform="translate(0 -0.01)"/><path d="M71.15,25.76a1.65,1.65,0,0,1-1.47,1.74,1.63,1.63,0,0,1-1.9-1.36A1.76,1.76,0,0,1,69,24,1.69,1.69,0,0,1,71.15,25.76Zm-.65,0a1.07,1.07,0,0,0-1.39-1.15A1.22,1.22,0,0,0,68.42,26a1,1,0,0,0,.8.86A1.06,1.06,0,0,0,70.5,25.74Z" transform="translate(0 -0.01)"/><path d="M63,20a1.33,1.33,0,0,1,1.33-1.32,1.37,1.37,0,0,1,1.31,1.36,1.33,1.33,0,0,1-1.34,1.34A1.31,1.31,0,0,1,63,20Z" transform="translate(0 -0.01)"/><path d="M49.85,11.75a1.2,1.2,0,0,1,1.2-1.23,1.22,1.22,0,0,1,1.22,1.22A1.24,1.24,0,0,1,51.05,13,1.21,1.21,0,0,1,49.85,11.75Z" transform="translate(0 -0.01)"/><path d="M87.75,30.25c-.5.65-.27.66-1.06.27a3.58,3.58,0,0,1-1.49-1.35,3.27,3.27,0,0,1-1.91,1.61c-.19.07-.3.07-.4-.12a3.68,3.68,0,0,0-.28-.39,3.27,3.27,0,0,0,1.33-.55,2.4,2.4,0,0,0,.91-1.55c0-.11,0-.23.18-.19s.37-.13.44.15a2.8,2.8,0,0,0,2.12,2.05l.1,0Z" transform="translate(0 -0.01)"/><path d="M73.19,26c0,.65,0,1.31,0,2,0,.17,0,.23-.22.22-.44,0-.44,0-.44-.43,0-.24,0-.48,0-.72s0-.19-.2-.19h-.81c-.13,0-.19,0-.19-.17,0-.38,0-.38.38-.38h0c.85,0,.85,0,.79-.86,0-.12,0-.15-.16-.15-.28,0-.56,0-.83,0s-.2,0-.2-.19c0-.39,0-.39.38-.39s.6.09.76,0,0-.49,0-.74,0-.16.17-.16c.49,0,.49,0,.49.46Z" transform="translate(0 -0.01)"/><path d="M78.11,30.61H76c-.19,0-.24-.05-.23-.24,0-.55,0-1.11,0-1.66,0-.16,0-.21.2-.21.45,0,.45,0,.45.44,0,.29,0,.57,0,.86s0,.22.22.22c1.19,0,2.38,0,3.57,0,.31,0,.23.16.25.33s0,.28-.24.28C79.5,30.6,78.8,30.61,78.11,30.61Z" transform="translate(0 -0.01)"/><path d="M86.63,26.1c0-.7,0-1.39,0-2.09,0-.18.05-.22.22-.22.43,0,.43,0,.44.43s0,1,0,1.47c0,.15,0,.21.19.2s.34,0,.51,0,.26.05.25.25,0,.34-.36.34c-.58,0-.58,0-.58.57,0,.38,0,.77,0,1.15,0,.18,0,.22-.23.22-.45,0-.45,0-.45-.44C86.63,27.35,86.63,26.73,86.63,26.1Z" transform="translate(0 -0.01)"/><path d="M80.24,26.53c0,.81,0,1.63,0,2.44,0,.22-.07.28-.27.25h-.19c-.17,0-.21,0-.2-.21q0-2.51,0-5c0-.19.06-.22.23-.21.43,0,.43,0,.43.44C80.24,25,80.24,25.76,80.24,26.53Z" transform="translate(0 -0.01)"/><path d="M94.49,25.81c0,.6,0,1.2,0,1.8,0,.17,0,.22-.22.22-.43,0-.43,0-.43-.43s0-.63,0-.94c0-.15,0-.2-.19-.19-.35,0-.7,0-1.05,0s-.17-.15-.17-.27-.11-.3.16-.29h1c.15,0,.2,0,.2-.19,0-.51,0-1,0-1.53,0-.16,0-.21.2-.21.45,0,.45,0,.45.44S94.49,25.29,94.49,25.81Z" transform="translate(0 -0.01)"/></svg>