<?xml version="1.0" encoding="utf-8"?>
<!-- Generator: Adobe Illustrator 25.2.3, SVG Export Plug-In . SVG Version: 6.00 Build 0)  -->
<svg version="1.1" id="Layer_1" xmlns="http://www.w3.org/2000/svg" xmlns:xlink="http://www.w3.org/1999/xlink" x="0px" y="0px"
	 viewBox="0 0 156.12 68.63" style="enable-background:new 0 0 156.12 68.63;" xml:space="preserve">
<style type="text/css">
	.st0{fill:#223437;}
	.st1{fill:#5F8D49;}
</style>
<g>
	<path class="st0" d="M139.33,20.97c0.94,1.22,1.87,2.45,2.92,3.82c-2.06,2.15-4.16,4.35-6.41,6.69c-3.7-4.21-7.31-8.32-11.05-12.57
		c-3.73,4.24-7.36,8.35-11.11,12.6c-2.2-2.33-4.29-4.55-6.48-6.88c4.14-4.44,8.19-8.78,12.53-13.42c-3.61,0-6.79,0-10.15,0
		c0-3.02,0-5.89,0-8.89c10.11,0,20.24,0,30.52,0c0,2.96,0,5.86,0,8.92c2.37,0,4.6,0,7.03,0c0-3.52,0-6.96,0-10.5
		c3.09,0,5.98,0,9.02,0c0,10.63,0,21.22,0,31.93c-2.95,0-5.84,0-8.94,0c0-3.82,0-7.65,0-11.67c-2.77,0-5.34,0-7.91,0
		c0-3.25,0-6.51,0-9.88c-2.59,0-5.34,0-8.08,0c-0.29,0-0.57,0.04-1.25,0.1c0.91,1.04,1.57,1.87,2.31,2.62
		C134.62,16.23,136.98,18.6,139.33,20.97z"/>
	<path class="st0" d="M15.52,0.01c6.33-0.3,13.13,4.52,14.87,12.18c1.46,6.41-0.19,12.08-5.15,16.46
		c-6.76,5.97-16.74,4.74-22.12-2.79C-2,18.71-0.68,9.01,6.06,3.35C8.81,1.04,11.98-0.13,15.52,0.01z M9.05,16.24
		c-0.25,3.87,3.3,6.83,6.4,6.75c3.68-0.09,6.56-3.07,6.51-6.95c-0.05-3.71-2.97-6.74-6.47-6.79C12.35,9.21,8.76,12.16,9.05,16.24z"
		/>
	<path class="st0" d="M147.3,68.63c0-8.24,0-16.41,0-24.91c-7.29-0.04-14.41,0-21.65-0.03c0-3.03,0-5.89,0-8.87
		c10.17,0,20.25,0,30.49,0c0,11.23,0,22.45,0,33.81C153.23,68.63,150.35,68.63,147.3,68.63z"/>
	<path class="st0" d="M53.22,11.17c0-3.16,0-5.91,0-8.82c10.18,0,20.32,0,30.46,0c0.5,1.92,0.68,18.09,0.29,27.94
		c-2.93,0-5.87,0-8.98,0c0-6.32,0-12.61,0-19.12C67.69,11.17,60.56,11.17,53.22,11.17z"/>
	<path class="st0" d="M46.33,0.77c0,14.65,0,29.07,0,43.6c-3,0-5.89,0-8.76,0c-0.48-1.68-0.64-39.57-0.2-43.6
		C40.3,0.77,43.26,0.77,46.33,0.77z"/>
	<path class="st0" d="M99.41,44.33c-2.93,0-5.81,0-8.83,0c0-14.51,0-28.98,0-43.57c2.92,0,5.8,0,8.83,0
		C99.41,15.25,99.41,29.71,99.41,44.33z"/>
	<path class="st1" d="M13.38,65.1c0-3.99,0-7.66,0-11.42c-0.7,0-1.2,0-1.87,0c0,3.64-0.03,7.18,0.04,10.71
		c0.01,0.46,0.58,0.91,0.87,1.34C9.16,67.4,4.85,66.3,3,63.08C0.9,59.43,1.7,55.4,5,53.02c3.09-2.22,7.6-1.88,10.14,1.41
		C17.9,57.99,17.01,62.78,13.38,65.1z M10.22,58.65c-0.31-0.94-0.53-1.77-0.85-2.55c-0.49-1.2-1.46-1.86-2.73-1.88
		c-1.27-0.02-2.2,0.65-2.81,1.79c-1,1.87-1.02,3.73,0.02,5.58c1.21,2.15,4.11,2.24,5.33,0.09C9.71,60.76,9.89,59.65,10.22,58.65z"/>
	<path class="st1" d="M52.17,54.61c0.57-2.08,2.39-2.5,4.1-2.83c1.81-0.35,3.59-0.02,5.44,1.18c-0.51,0.21-0.85,0.35-1.28,0.52
		c0,4.06,0,8.17,0,12.34c-3.06,1.28-6.23,0.65-8.41-1.77c-2.09-2.32-2.46-6.03-0.83-8.77c0.2-0.33,0.67-0.48,1.02-0.72
		c0.03,0.59,0.06,1.18,0.09,1.98c1.31,0,2.44,0,3.59,0c-0.2,2.94-2.56,4.11-4.19,5.82c1.53,0.9,1.61,0.98,2.37,0.31
		c1.06-0.93,2.21-1.87,2.9-3.05c0.82-1.41,1.8-2.96,1.07-5.03C56.07,54.61,54.12,54.61,52.17,54.61z"/>
	<path class="st1" d="M100.2,55.26c0.81,0.18,1.62,0.37,2.53,0.57c0.6,2-1.33,2.33-2.24,3.31c0.99,1.54,0.99,1.54,3.4-0.25
		c0.78,0.45,1.58,0.91,2.47,1.42c0.31-0.41,0.58-0.76,0.84-1.11c-0.68-1.13-2.56-1.45-1.99-3.16c0.44-0.8,2.35,0.21,1.64-1.92
		c-0.76,0-1.67,0-2.58,0c-0.9,0-1.81,0-2.97,0c2.52-2.85,6.09-3.22,9.15-1.15c-0.42,0.24-0.78,0.45-1.28,0.74
		c-0.07,0.6-0.15,1.29-0.25,2.11c-0.47,0.1-0.99,0.2-1.67,0.34c-0.04,0.39-0.09,0.82-0.15,1.39c0.62,0.18,1.19,0.34,1.83,0.53
		c0,0.87,0,1.7,0,2.7c-2.25,0-4.43,0-6.77,0c-0.05,0.64-0.09,1.13-0.15,1.82c2.34,0,4.51,0,6.78,0c0.19,1.14,0.35,2.12,0.52,3.14
		c-2.89,1.42-6.37,0.74-8.58-1.77C98.66,61.59,98.44,58.01,100.2,55.26z"/>
	<path class="st0" d="M116.74,60.32c0.18-0.84,0.28-1.28,0.39-1.8c3.8,0,7.56,0,11.46,0c0.06,0.55,0.12,1.04,0.2,1.73
		c-1.62,0-3.08,0-4.54,0c-0.02,0.13-0.05,0.26-0.07,0.38c0.69,0.26,1.48,0.39,2.06,0.81c0.58,0.42,1.24,1.07,1.34,1.7
		c0.07,0.48-0.55,1.36-1.08,1.6c-2.46,1.11-5,1.15-7.49,0.01c-0.7-0.32-1.23-0.91-0.98-1.67c0.2-0.6,0.66-1.23,1.18-1.57
		c0.69-0.44,1.56-0.61,2.33-1.19C120.04,60.32,118.54,60.32,116.74,60.32z M120.11,62.98c2.5,1.38,3.56,1.34,5.05-0.1
		C123.53,62.26,121.99,62.13,120.11,62.98z"/>
	<path class="st0" d="M41.17,64.88c-0.72-0.05-1.24-0.09-1.88-0.13c0-1.59,0-3.07,0-4.43c-0.59-0.49-1.04-0.87-1.57-1.32
		c-0.91,1.66-1.88,3.42-3.78,4.4c-0.4-0.31-0.77-0.59-1.23-0.95c1.68-1.59,3.14-3.29,3.43-5.81c-0.92-0.09-1.75-0.17-2.7-0.26
		c0-0.51,0-1,0-1.59c1.59,0,3.06,0,4.69,0c0.09,0.9,0.18,1.81,0.27,2.73c0.21,0,0.42,0,0.64,0c0.09-1.18,0.19-2.36,0.29-3.7
		c0.58-0.03,1.15-0.06,1.85-0.09C41.17,57.44,41.17,61.02,41.17,64.88z"/>
	<path class="st0" d="M140.55,64.1c0.32,0.94-0.26,1.08-0.98,1.09c-2.67,0-5.33,0-8.14,0c0-0.98,0-1.82,0-2.93c2.16,0,4.39,0,6.63,0
		c0-0.16,0-0.33,0-0.49c-2.21,0-4.42,0-6.49,0c-0.86-1.53,1.08-0.89,0.97-1.83c-0.82-0.06-1.65-0.13-2.48-0.19
		c-0.25-1.1,0.4-1.07,1.06-1.04c3.26,0,6.53,0,9.79,0c0.31,0.21,0.62,0.42,1.35,0.91c-1.28,0.16-2.01,0.25-2.91,0.37
		c1.37,0.83,1.11,2.01,0.94,3.17c-2.17,0.11-4.38-0.23-6.68,0.24c0.25,0.38,0.32,0.59,0.4,0.6
		C136.18,64.03,138.37,64.06,140.55,64.1z M134.7,59.97c0.83,0.82,1.46,0.57,2.1,0C136.17,59.97,135.55,59.97,134.7,59.97z"/>
	<path class="st0" d="M117.71,56.67c0.89-0.29,1.76-0.58,3.06-1.01c-1.12-0.15-1.79-0.24-2.57-0.35c0-0.5,0-0.93,0-1.36
		c0.15-0.08,0.28-0.22,0.41-0.22c2.82-0.01,5.64-0.01,8.63-0.01c0.04,0.52,0.08,1,0.14,1.6c-0.9,0.09-1.65,0.16-2.96,0.29
		c1.44,0.43,2.37,0.7,3.32,0.99c-0.24,1.18-0.99,1.47-2.03,1.26c-0.46-0.09-0.95-0.18-1.33-0.42c-1.13-0.68-2.14-0.51-3.31,0.01
		C119.19,58.3,118.94,58.16,117.71,56.67z"/>
	<path class="st0" d="M21.03,61.22c1.42,0,2.36,0,3.29,0c1.96,0,3.92,0,6.3,0c-0.4,0.83-0.98,1.47-0.85,1.87
		c0.33,1.01-0.03,1.57-0.84,1.88c-0.72,0.27-1.52,0.47-2.29,0.47c-1.17,0.01-2.37-0.05-3.5-0.32c-0.87-0.21-1.84-0.58-1.28-1.98
		C22.02,62.78,21.45,62.13,21.03,61.22z M27.49,64c-0.02-0.2-0.04-0.4-0.07-0.6c-1.07-0.2-2.15-0.59-3.57,0.6
		C25.35,64,26.42,64,27.49,64z"/>
	<path class="st0" d="M131.4,57.9c-0.01-0.78-0.01-1.56-0.02-2.34c1.97-0.01,3.94,0,5.91-0.05c0.34-0.01,0.67-0.29,1-0.44
		c-0.03-0.16-0.07-0.32-0.1-0.48c-2.26,0-4.53,0-6.79,0c-0.21-0.68,0.01-1.08,0.75-1.08c2.66-0.01,5.32,0,8.11,0
		c0,1.09,0,1.98,0,3.04c-2.19,0-4.3,0-6.4,0c0,0.12,0,0.23,0,0.35c1.93,0,3.85-0.01,5.78,0.01c0.6,0.01,1.17,0.11,0.8,0.96
		C137.43,57.87,134.41,57.88,131.4,57.9z"/>
	<path class="st0" d="M68.91,54.13c2.05,0,3.92,0,5.9,0c0,1.86,0,3.63,0,5.57c-1.9,0-3.82,0-5.9,0
		C68.91,57.88,68.91,55.99,68.91,54.13z M70.77,58.2c0.82,0,1.41,0,2.07,0c0-0.85,0-1.57,0-2.36c-0.76,0-1.4,0-2.07,0
		C70.77,56.67,70.77,57.35,70.77,58.2z"/>
	<path class="st0" d="M23.29,59.37c-0.86,0-1.72,0-2.75,0c0-1.08,0-2.12,0-3.35c1.08-0.05,2.2-0.11,3.31-0.17
		c0-0.09,0-0.19,0.01-0.28c-1.02,0-2.04,0-3.18,0c-0.11-0.47-0.2-0.89-0.27-1.21c0.17-0.17,0.22-0.28,0.27-0.28
		c1.71-0.01,3.43-0.01,5.31-0.01c0,0.95,0,1.93,0,3.21c-1.07,0.07-2.2,0.14-3.33,0.22c0,0.07,0,0.13,0,0.2c1.37,0,2.74,0,4.31,0
		c0,0.31,0,0.73,0,1.15C25.75,59.02,24.52,59.2,23.29,59.37z"/>
	<path class="st1" d="M110.98,64.78c0-4.03,0-7.69,0-11.34C114.69,55.92,114.89,61.48,110.98,64.78z"/>
	<path class="st0" d="M78.48,60.79c0.08,1.4,0.17,2.81,0.26,4.38c-0.7,0.1-1.27,0.18-2,0.28c-0.13-0.96-0.23-1.78-0.36-2.79
		c-2.09,0-4.19,0-6.43,0c-0.08-0.65-0.14-1.15-0.23-1.9c2.33,0,4.51,0,6.7,0C77.1,60.78,77.79,60.79,78.48,60.79z"/>
	<path class="st0" d="M41.93,53.43c0.61,0,1.11,0,1.7,0c0,3.99,0,7.87,0,11.85c-0.61,0-1.11,0-1.7,0
		C41.93,61.28,41.93,57.41,41.93,53.43z"/>
	<path class="st1" d="M62.22,64.6c0-3.77,0-7.28,0-10.84C65.91,56.26,66.01,61.34,62.22,64.6z"/>
	<path class="st0" d="M90.41,53.4c0.63,0,1.16,0,1.82,0c0,2.87,0,5.66,0,8.65c-0.52,0.05-1.09,0.11-1.82,0.19
		C90.41,59.28,90.41,56.48,90.41,53.4z"/>
	<path class="st0" d="M85.77,63.38c2.01,0,3.81,0.02,5.6-0.01c0.96-0.02,1.56,0.23,1.25,1.52c-2.95,0-5.95,0-9.06,0
		c0-1.01,0-1.99,0-3.14c0.56-0.05,1.07-0.09,1.65-0.14C85.39,62.19,85.55,62.69,85.77,63.38z"/>
	<path class="st0" d="M87.26,57.39c0.65,0.46,1.3,0.91,1.91,1.34c-1.28,2.7-4.58,3.39-6.51,1.64c-0.85-0.77-0.89-1.56-0.03-2.39
		c0.32-0.3,0.8-0.43,1.21-0.63C84.99,57.09,86.12,56.98,87.26,57.39z M86.62,59.68c0.04-0.22,0.07-0.43,0.11-0.65
		c-0.83-0.59-1.66-0.8-2.85,0.47C85.03,59.57,85.82,59.63,86.62,59.68z"/>
	<path class="st0" d="M28.63,57.15c-0.83-0.1-1.35-0.17-1.94-0.24c0-0.43,0-0.79,0-1.24c0.53-0.08,1.05-0.15,1.72-0.25
		c0.06-0.63,0.13-1.3,0.21-2.03c0.58,0,1.03,0,1.77,0c0.13,2.22,0.06,4.45,0.03,6.87c-0.57,0.05-1.08,0.1-1.78,0.16
		C28.63,59.35,28.63,58.37,28.63,57.15z"/>
	<path class="st0" d="M76.83,60.29c0-2.18,0-4.36,0-6.71c0.45-0.05,0.95-0.1,1.61-0.18c0.12,0.83,0.23,1.57,0.36,2.48
		c1.06,0.04,1.75,0.49,1.11,1.84c-0.3,0.11-0.72,0.26-1.14,0.41c-0.09,0.73-0.17,1.42-0.25,2.11C77.96,60.26,77.4,60.28,76.83,60.29
		z"/>
	<path class="st0" d="M83.93,56.97c-0.68-0.07-1.37-0.15-2.14-0.23c0-0.53,0-0.95,0-1.49c0.62-0.05,1.15-0.1,1.68-0.14
		c1.39,0.7,2.8,0.64,4.2,0.04c0.39,0,0.78,0,1.33,0c0.06,0.52,0.11,1,0.18,1.64c-0.76,0.05-1.38,0.09-1.99,0.14
		C86.1,56.26,85.01,56.2,83.93,56.97z"/>
	<path class="st0" d="M83.54,54.59c0-0.37,0-0.75,0-1.24c1.31,0,2.58,0,4,0c-0.05,0.48-0.08,0.83-0.12,1.18
		C86.12,54.56,84.83,54.58,83.54,54.59z"/>
	<path class="st0" d="M27.25,59.65c0.29,0.21,0.57,0.43,0.86,0.64c-0.04,0.15-0.09,0.3-0.13,0.46c-1.41,0-2.82,0.02-4.22-0.04
		c-0.12-0.01-0.21-0.57-0.31-0.87C24.71,59.77,25.98,59.71,27.25,59.65z"/>
	<path class="st1" d="M6.54,61.5c-1.68-1.28-2.08-3.54-0.9-5.03c0.56-0.7,1.35-0.61,1.92,0.22C8.67,58.31,8.29,60.09,6.54,61.5z"/>
</g>
</svg>
