<svg id="Layer_1" data-name="Layer 1" xmlns="http://www.w3.org/2000/svg" viewBox="0 0 48 48"><defs><style>.cls-1{fill:#333;}</style></defs><path class="cls-1" d="M24,28.32a2.23,2.23,0,0,1-1.63-.65A2.18,2.18,0,0,1,21.68,26a2.23,2.23,0,0,1,.65-1.62A2.18,2.18,0,0,1,24,23.73a2.23,2.23,0,0,1,1.62.65A2.17,2.17,0,0,1,26.27,26a2.26,2.26,0,0,1-.64,1.63A2.21,2.21,0,0,1,24,28.32Zm-8,0a2.23,2.23,0,0,1-1.63-.65A2.18,2.18,0,0,1,13.68,26a2.23,2.23,0,0,1,.65-1.62A2.18,2.18,0,0,1,16,23.73a2.23,2.23,0,0,1,1.62.65A2.17,2.17,0,0,1,18.27,26a2.26,2.26,0,0,1-.64,1.63A2.21,2.21,0,0,1,16,28.32Zm16,0a2.25,2.25,0,0,1-1.6-.65,2.13,2.13,0,0,1-.7-1.65,2.16,2.16,0,0,1,.7-1.62,2.29,2.29,0,0,1,3.22,0A2.17,2.17,0,0,1,34.27,26a2.26,2.26,0,0,1-.64,1.63A2.21,2.21,0,0,1,32,28.32Zm-8,8a2.16,2.16,0,0,1-1.63-.7,2.29,2.29,0,0,1,0-3.22A2.18,2.18,0,0,1,24,31.73a2.26,2.26,0,0,1,1.62.64A2.21,2.21,0,0,1,26.27,34a2.26,2.26,0,0,1-.64,1.6A2.16,2.16,0,0,1,24,36.32Zm-8,0a2.16,2.16,0,0,1-1.63-.7,2.29,2.29,0,0,1,0-3.22A2.18,2.18,0,0,1,16,31.73a2.26,2.26,0,0,1,1.62.64A2.21,2.21,0,0,1,18.27,34a2.26,2.26,0,0,1-.64,1.6A2.16,2.16,0,0,1,16,36.32Zm16,0a2.28,2.28,0,0,1-1.6-3.92,2.23,2.23,0,0,1,1.6-.67,2.26,2.26,0,0,1,1.62.64A2.21,2.21,0,0,1,34.27,34a2.26,2.26,0,0,1-.64,1.6A2.16,2.16,0,0,1,32,36.32Zm-22.55,9A4.53,4.53,0,0,1,6.1,43.9a4.51,4.51,0,0,1-1.37-3.33V10.47A4.62,4.62,0,0,1,6.1,7.12a4.52,4.52,0,0,1,3.33-1.4h2.8v-1a1.94,1.94,0,0,1,.62-1.42,2,2,0,0,1,2.88,0,2,2,0,0,1,.6,1.42v1h15.3v-1a1.94,1.94,0,0,1,.62-1.42,2,2,0,0,1,1.43-.62,1.93,1.93,0,0,1,1.45.62,2,2,0,0,1,.6,1.42v1h2.79a4.76,4.76,0,0,1,4.75,4.75v30.1a4.49,4.49,0,0,1-1.39,3.33,4.61,4.61,0,0,1-3.36,1.37Zm0-4.7H38.52v-21H9.43V40.57Zm0-24H38.52v-6H9.43Zm0,0v-6h0Z"/></svg>