<svg id="Layer_1" data-name="Layer 1" xmlns="http://www.w3.org/2000/svg" viewBox="0 0 48 48"><defs><style>.cls-1{fill:#333;}</style></defs><path class="cls-1" d="M13.37,17.53h5.71a1.5,1.5,0,1,0,0-3H13.37A1.45,1.45,0,0,0,12.3,15a1.51,1.51,0,0,0,1.07,2.58Zm0,8h5.71a1.5,1.5,0,1,0,0-3H13.37A1.45,1.45,0,0,0,12.3,23a1.51,1.51,0,0,0,1.07,2.58Zm0,8h5.71a1.5,1.5,0,1,0,0-3H13.37A1.45,1.45,0,0,0,12.3,31a1.51,1.51,0,0,0,1.07,2.58Zm15.71-4.61a.94.94,0,0,0,.37-.07,1.14,1.14,0,0,0,.32-.22l7.11-7.15a1.64,1.64,0,0,0,.52-1.06,1.37,1.37,0,0,0-.47-1,1.5,1.5,0,0,0-2.16,0l-5.69,5.69-1.81-1.75a1.47,1.47,0,0,0-1.05-.44,1.54,1.54,0,0,0-1.5,1.5,1.38,1.38,0,0,0,.46,1l3.19,3.21a1.19,1.19,0,0,0,.33.22A1,1,0,0,0,29.08,28.92ZM7,43.28A4.52,4.52,0,0,1,3.7,41.9a4.52,4.52,0,0,1-1.38-3.33V9.47A4.59,4.59,0,0,1,3.7,6.13,4.47,4.47,0,0,1,7,4.72H40.93a4.54,4.54,0,0,1,3.34,1.41,4.54,4.54,0,0,1,1.41,3.34v29.1a4.47,4.47,0,0,1-1.41,3.33,4.59,4.59,0,0,1-3.34,1.38Zm0-4.71H40.93V9.47H7v29.1Zm0,0H7V9.47H7v29.1Z"/></svg>