<svg id="Layer_1" data-name="Layer 1" xmlns="http://www.w3.org/2000/svg" viewBox="0 0 48 48"><defs><style>.cls-1{fill:#333;}</style></defs><path class="cls-1" d="M14.35,44.5a3.6,3.6,0,1,1,0-7.2,3.51,3.51,0,0,1,2.53,1.05,3.59,3.59,0,0,1-2.53,6.15Zm20,0a3.6,3.6,0,1,1,0-7.2,3.51,3.51,0,0,1,2.53,1.05,3.59,3.59,0,0,1-2.53,6.15ZM12.7,11.5l4.65,9.7H31.6l5.25-9.7H12.7Zm1.15,22.6a3.92,3.92,0,0,1-3.58-1.7,3.37,3.37,0,0,1,.08-3.7l3.05-5.6L6.1,7.55H4A1.87,1.87,0,0,1,2.58,7,2,2,0,0,1,2,5.5a2,2,0,0,1,.6-1.45,2,2,0,0,1,1.45-.6h3.2a2.3,2.3,0,0,1,2.1,1.3L10.6,7.4h28c1.8,0,2.89.48,3.28,1.42a4.07,4.07,0,0,1-.48,3.43L35.5,23a5.51,5.51,0,0,1-1.6,1.7,3.82,3.82,0,0,1-2.25.7H16.85L14.4,30H36.5a1.87,1.87,0,0,1,1.42.6,2,2,0,0,1,.58,1.45,2,2,0,0,1-2,2.05Zm3.5-12.9h0Z"/></svg>