<svg xmlns="http://www.w3.org/2000/svg" viewBox="0 0 84.92 84.92"><defs><style>.cls-1{fill:#41b649;}.cls-2{fill:#fff;}.cls-3{fill:#f57f1f;}</style></defs><g id="Layer_2" data-name="Layer 2"><g id="Layer_3" data-name="Layer 3"><path class="cls-1" d="M84.92,42.46A42.46,42.46,0,1,1,42.46,0,42.46,42.46,0,0,1,84.92,42.46Z"/><path class="cls-2" d="M57.63,24.62H26.45A8.33,8.33,0,0,0,18.12,33V49.1a8.33,8.33,0,0,0,8.33,8.32H38.17L42,65.05l4.38-7.63H57.63A8.33,8.33,0,0,0,66,49.1V33A8.33,8.33,0,0,0,57.63,24.62Z"/><path class="cls-3" d="M28.46,37.55a4.59,4.59,0,0,0-2.33.63V34H23V46.66h3.12v-.58a4.5,4.5,0,0,0,2.33.64,4.59,4.59,0,0,0,0-9.17ZM28.12,44A1.87,1.87,0,1,1,30,42.13,1.87,1.87,0,0,1,28.12,44Z"/><path class="cls-3" d="M38,37.06A3.74,3.74,0,0,0,34,34v2.45s1.16,0,1.16,1.83v8.44h3V38.26A5.18,5.18,0,0,0,38,37.06Z"/><path class="cls-3" d="M45,37.41a4.85,4.85,0,1,0,4.84,4.84A4.85,4.85,0,0,0,45,37.41Zm0,6.83a2,2,0,1,1,2-2A2,2,0,0,1,45,44.24Z"/><path class="cls-3" d="M61,47.41V38H58.15v.39a4.48,4.48,0,1,0,0,7.73v1.29c0,1.54-2.72,1.23-2.72,1.23v2.44C61.68,51.08,61,47.41,61,47.41ZM55.88,44.1a1.85,1.85,0,1,1,1.85-1.85A1.84,1.84,0,0,1,55.88,44.1Z"/></g></g></svg>