<svg xmlns="http://www.w3.org/2000/svg" xmlns:xlink="http://www.w3.org/1999/xlink" viewBox="0 0 84.54 84.54"><defs><style>.cls-1{fill:url(#linear-gradient);}.cls-2{fill:#fff;}</style><linearGradient id="linear-gradient" x1="12.62" y1="71.91" x2="71.13" y2="13.41" gradientUnits="userSpaceOnUse"><stop offset="0.03" stop-color="#fcb216"/><stop offset="0.19" stop-color="#f46333"/><stop offset="0.3" stop-color="#ef3046"/><stop offset="0.35" stop-color="#ed1c4d"/><stop offset="0.71" stop-color="#8f2785"/><stop offset="1" stop-color="#5757a2"/></linearGradient></defs><g id="Layer_2" data-name="Layer 2"><g id="Layer_3" data-name="Layer 3"><path class="cls-1" d="M84.54,42.27A42.27,42.27,0,1,1,42.27,0,42.28,42.28,0,0,1,84.54,42.27Z"/><path class="cls-2" d="M53.36,65.57H32.71A13.48,13.48,0,0,1,19.24,52.11V32A13.47,13.47,0,0,1,32.71,18.57H53.36A13.47,13.47,0,0,1,66.83,32V52.11A13.48,13.48,0,0,1,53.36,65.57ZM32.71,22.92A9.13,9.13,0,0,0,23.59,32V52.11a9.13,9.13,0,0,0,9.12,9.11H53.36a9.12,9.12,0,0,0,9.11-9.11V32a9.12,9.12,0,0,0-9.11-9.11Z"/><path class="cls-2" d="M43,54.4A12.34,12.34,0,1,1,55.37,42.07,12.34,12.34,0,0,1,43,54.4Zm0-20.31a8,8,0,1,0,8,8A8,8,0,0,0,43,34.09Z"/><path class="cls-2" d="M58.71,29.49a2.91,2.91,0,1,1-2.91-2.9A2.91,2.91,0,0,1,58.71,29.49Z"/></g></g></svg>