<svg xmlns="http://www.w3.org/2000/svg" viewBox="0 0 84.92 84.92"><defs><style>.cls-1{fill:#fcee2c;}.cls-2{fill:#3c1d1d;}</style></defs><g id="Layer_2" data-name="Layer 2"><g id="Layer_3" data-name="Layer 3"><path class="cls-1" d="M84.92,42.46A42.46,42.46,0,1,1,42.46,0,42.46,42.46,0,0,1,84.92,42.46Z"/><polygon class="cls-2" points="36.68 41.99 38.09 41.99 37.38 40.46 36.68 41.99"/><path class="cls-2" d="M42.76,22.13c-12.71,0-23,8.14-23,18.18,0,6,3.64,11.25,9.26,14.57,1.18.7.15,2.43.15,2.43l-4.62,6a.66.66,0,0,0,.63.88.62.62,0,0,0,.4-.15,31.28,31.28,0,0,0,6.81-2.51,53.43,53.43,0,0,0,6.23-3.4,28.35,28.35,0,0,0,4.15.31c12.7,0,23-8.14,23-18.18S55.46,22.13,42.76,22.13ZM31.11,45.52h0v.07a1.62,1.62,0,1,1-3.24,0s0,0,0-.07h0V37.86H25.7a1.48,1.48,0,0,1-1.37-1.48,1.47,1.47,0,0,1,1.37-1.47h7.23a1.48,1.48,0,0,1,0,3H31.11Zm28.45,1.62a1.61,1.61,0,0,1-1.29-.64h0l-2.82-3.81-.59.59v2.28a1.62,1.62,0,0,1-3.14.56,1.37,1.37,0,0,1-1.34,1.06v0H44.33v0a1.61,1.61,0,0,1-1.34-1c0,.06,0,.12-.07.18a1.64,1.64,0,0,1-1.43.85h0a1.07,1.07,0,0,1-.25,0h0L41,47.13l0,0-.22-.1h0l-.21-.14h0l-.18-.17h0a1.58,1.58,0,0,1-.37-.7l-.52-1.14h-4L34.85,46a1.62,1.62,0,0,1-3.19-.39,1.71,1.71,0,0,1,.11-.59h0l.06-.14,3.93-8.63a1.63,1.63,0,0,1,1.6-1.33h0A1.61,1.61,0,0,1,39,36.23l3.86,8.46V36.84h0a1.21,1.21,0,0,1,0-.19,1.62,1.62,0,0,1,3.24,0,1.21,1.21,0,0,1,0,.19h0v7.58h4.28a1.39,1.39,0,0,1,1.24.78V36.66a1.62,1.62,0,1,1,3.24,0v2L58,35.59A1.59,1.59,0,0,1,59.18,35a1.61,1.61,0,0,1,1.62,1.62,1.66,1.66,0,0,1-.41,1.08h0l0,0-.07.08-2.52,2.53,3,4.13h0a1.59,1.59,0,0,1,.36,1A1.61,1.61,0,0,1,59.56,47.14Z"/><path class="cls-1" d="M43.11,45.44a.5.5,0,0,1,0-.12v0l0-.15h0s0-.09,0-.14h0a.61.61,0,0,0-.07-.14l-.07-.17v.37h.08a1.69,1.69,0,0,0-.08.5,1.61,1.61,0,0,0,.13.63,1.69,1.69,0,0,0,.12-.6Z"/><path class="cls-1" d="M51.62,45.2v.36a1.74,1.74,0,0,0,.1.56,1.65,1.65,0,0,0,0-.32A1.33,1.33,0,0,0,51.62,45.2Z"/></g></g></svg>