<svg xmlns="http://www.w3.org/2000/svg" viewBox="0 0 84.92 84.92"><defs><style>.cls-1{fill:#cb1f28;}.cls-2{fill:#fffefe;}.cls-3{fill:#fff;}.cls-4{fill:#e24450;}</style></defs><g id="Layer_2" data-name="Layer 2"><g id="Layer_3" data-name="Layer 3"><circle class="cls-1" cx="42.46" cy="42.46" r="42.46" transform="translate(-4.88 79.4) rotate(-82.96)"/><polygon class="cls-2" points="25.86 11.4 29.28 11.4 31.53 18.56 33.45 11.4 36.97 11.4 32.91 23.26 32.92 32.55 29.7 32.55 29.71 23.37 25.86 11.4"/><path class="cls-2" d="M41.37,17A4.4,4.4,0,0,0,37,21.35V29a4.4,4.4,0,1,0,8.79,0V21.35A4.4,4.4,0,0,0,41.37,17ZM42.74,29.3a1.44,1.44,0,1,1-2.88,0V21.07a1.44,1.44,0,0,1,2.88,0Z"/><path class="cls-2" d="M53.53,17V29.61c-.77.48-2.44,1.52-2.75,1.64h0V17H47.87V31.7s0,1.66,2.11,1.66a6.12,6.12,0,0,0,3.55-1.92v1.11h3V17Z"/><path class="cls-3" d="M65.8,62.05c0,3.87-2.31,7-6.18,7H25.32a7,7,0,0,1-7-7V43.52a7,7,0,0,1,7-7h34.3c3.87,0,6.18,3.13,6.18,7Z"/><path class="cls-4" d="M37.9,47V59.65c-.77.48-2.44,1.51-2.75,1.63h0V47H32.24V61.73s0,1.66,2.11,1.66a6.12,6.12,0,0,0,3.55-1.92v1.12h3V47Z"/><polygon class="cls-4" points="31.42 41.28 28.18 41.28 25.15 41.28 21.68 41.28 21.68 44.42 25.15 44.42 25.15 62.69 28.18 62.69 28.18 44.42 31.42 44.42 31.42 41.28"/><path class="cls-4" d="M48.91,47a2.86,2.86,0,0,0-2.73,2V41.28h-3v21.4h3v-2a2.86,2.86,0,0,0,5.6-.85V49.87A2.87,2.87,0,0,0,48.91,47Zm0,12.35a1.37,1.37,0,0,1-2.73,0V50.83a1.37,1.37,0,1,1,2.73,0Z"/><path class="cls-4" d="M59.45,58.76a1.5,1.5,0,0,1-1.51,1.57,1.36,1.36,0,0,1-1.52-1.45V55.19h5.94V51.42a4.43,4.43,0,1,0-8.85,0v6.84a4.43,4.43,0,0,0,8.85,0V57.05L59.45,57Zm-3-8a1.52,1.52,0,0,1,3,0v2a1.33,1.33,0,0,1,0,.28h-3a1.33,1.33,0,0,1,0-.28Z"/></g></g></svg>