<svg id="Layer_1" data-name="Layer 1" xmlns="http://www.w3.org/2000/svg" viewBox="0 0 383.53 92.75"><defs><style>.cls-1{fill:#343535;}</style></defs><path class="cls-1" d="M0,71.46,38.15,11.37l5.36,9.22L13,68.34S2,70.46,0,71.46Z"/><path class="cls-1" d="M58,3.76,17.33,67.59s7-.62,8.23-.49L61.71,10.87Z"/><path class="cls-1" d="M73.36,0,30.6,67.94s33.79-1.49,51.11,1.5c0,0,35.29,5,25.94,15.83,0,0-4,4.37-18,7.48,0,0,25.44-1.25,29.05-13.34a8.21,8.21,0,0,0-.62-7Z"/><path class="cls-1" d="M11.24,78.07h3.07c1.36,0,3.51.39,3.51,5.14,0,2.65-.87,5.41-3.47,5.41H11.24ZM8.1,91.4h6.63c5.06,0,6.36-5,6.36-8.43,0-3.06-1.07-7.68-6.23-7.68H8.1Z"/><path class="cls-1" d="M28.7,78.93h0l1.9,6.37h-3.9Zm-2.81,9.15h5.65l1,3.32H36L30.6,75.29H26.91L21.45,91.4h3.37Z"/><path class="cls-1" d="M49.29,78.14H41.17v3.39h7.46v2.85H41.17v4.17h8.49V91.4H38V75.29H49.29Z"/><path class="cls-1" d="M59.44,82.72h6.4V91.4H63.7l-.31-2a5.58,5.58,0,0,1-4.78,2.45c-3.69,0-7-2.78-7-8.44,0-4.4,2.33-8.55,7.49-8.52,4.69,0,6.54,3.2,6.71,5.43h-3.2a3.4,3.4,0,0,0-3.34-2.65c-2.28,0-4.39,1.66-4.39,5.79,0,4.4,2.28,5.54,4.45,5.54.71,0,3.05-.29,3.71-3.54H59.44Z"/><path class="cls-1" d="M81.1,85.77c0,4.24-2.43,6.06-6.29,6.06a6.36,6.36,0,0,1-4.86-2A6.08,6.08,0,0,1,68.76,86V75.29H72V85.75C72,88,73.25,89,74.75,89c2.19,0,3.09-1.12,3.09-3.07V75.29H81.1Z"/><path class="cls-1" d="M330.21,22.13l-6.93,0v5.67h-8.8a19,19,0,0,0-12.28-4.08c-8.73,0-15.8,4.92-15.8,11s7.07,11,15.8,11a18.85,18.85,0,0,0,12.5-4.28h8.58v6.4H289.89v5.53l33.36,0V63.68h7Zm-28,17.93c-4.65,0-8.42-2.41-8.42-5.38s3.77-5.39,8.42-5.39,8.42,2.42,8.42,5.39S306.85,40.06,302.2,40.06Zm15.7-4.19a7.85,7.85,0,0,0,.1-1.19,8.43,8.43,0,0,0-.12-1.33h5.4v2.52Z"/><path class="cls-1" d="M373.44,22.11c0,.07,0,15.22,0,27.37-5.79-.07-10.13-.9-12.08-2.94-4.82-5-5.58-8.91-6.22-13.16a32.65,32.65,0,0,1-.2-3.83V23.1h-7v6.46a34.23,34.23,0,0,1-.19,3.83c-.65,4.25-.33,8.95-5.66,13.65a25.52,25.52,0,0,1-7.93,4.62l4.9,4.72c5-2.32,7.73-4.8,9.55-7.3a19.08,19.08,0,0,0,2.87-5.32,12.73,12.73,0,0,0,3,5.19c5.47,5.38,10.83,6.68,18.94,6.5l0,8.24h7V22.12Z"/><path class="cls-1" d="M131.75,55.45a2.8,2.8,0,0,1-2.67-3V24.34l19.83,0v5.57H136.05v20h17.77V22.13l7,0v16h4.31v-16h7l0,41.59h-6.93V43.61h-4.32V63.68h-7V55.46Z"/><path class="cls-1" d="M221.75,23.33H181.54v5.55l36,0V42.37H180.39v5.54h18.75V63.7h6.93V47.91H226.2V42.37h-1.65v-17h0c0,.1,0-.09,0,0C224.42,23.82,223.15,23.34,221.75,23.33Z"/><path class="cls-1" d="M281,30.43h-3.69v-8.3l-7,0V38.35h-5V27.44a3.08,3.08,0,0,0-3.07-2.89h-27.8v5.57h23.88v8.26h-9.58V32.67h-6.94v5.7h-8.48v5.53h37V48.2a36.59,36.59,0,0,0-13.9-2.5c-11.52,0-20.87,4.35-20.87,9.71s9.35,9.71,20.87,9.71,20.7-4.29,20.83-9.6h0l0-19.53H281ZM256.46,59.3c-6.5,0-11.77-1.74-11.77-3.89s5.27-3.89,11.77-3.89,11.77,1.74,11.77,3.89S263,59.3,256.46,59.3Z"/><path class="cls-1" d="M130.53,72.83h2.59c1.15,0,3,.27,3,3.62,0,1.86-.74,3.8-2.93,3.8h-2.63Zm-2.64,9.38h5.59c4.27,0,5.37-3.51,5.37-5.94,0-2.14-.9-5.39-5.26-5.39h-5.7Z"/><path class="cls-1" d="M145.27,73.43h0l1.6,4.48h-3.29Zm-2.37,6.44h4.77l.82,2.34h2.94l-4.55-11.33h-3.12l-4.61,11.33H142Z"/><path class="cls-1" d="M162.66,72.88H155.8v2.38h6.3v2h-6.3V80.2H163v2h-9.8V70.88h9.5Z"/><path class="cls-1" d="M171.22,76.1h5.4v6.11h-1.8l-.27-1.42a5,5,0,0,1-4,1.72,5.62,5.62,0,0,1-5.94-5.94c0-3.09,2-6,6.32-6,4,0,5.52,2.26,5.67,3.83h-2.7A2.76,2.76,0,0,0,171,72.53c-1.92,0-3.7,1.17-3.7,4.07,0,3.1,1.92,3.9,3.76,3.9A3.13,3.13,0,0,0,174.23,78h-3Z"/><path class="cls-1" d="M189.51,78.25c0,3-2,4.26-5.31,4.26a6,6,0,0,1-4.1-1.38,3.74,3.74,0,0,1-1-2.74V70.88h2.75v7.35a2.11,2.11,0,0,0,2.3,2.27c1.86,0,2.62-.79,2.62-2.16V70.88h2.75Z"/><path class="cls-1" d="M209.56,82.21H207V72.74h0l-2.41,9.47h-2.65l-2.36-9.47h0v9.47H197V70.88H201l2.34,8.93h0l2.3-8.93h3.91Z"/><path class="cls-1" d="M221.65,72.88h-6.86v2.38h6.3v2h-6.3V80.2H222v2h-9.81V70.88h9.5Z"/><path class="cls-1" d="M229.64,82.21h-2.7V72.88H223v-2h10.51v2h-3.9Z"/><path class="cls-1" d="M237.79,75.86v-3h3.37c1.58,0,1.89.89,1.89,1.48,0,1.13-.69,1.55-2.09,1.55Zm-2.64,6.35h2.64V77.77h2.79c2,0,2.11.6,2.11,2.15a7,7,0,0,0,.28,2.29h3v-.3c-.57-.19-.57-.6-.57-2.26,0-2.12-.58-2.46-1.64-2.87a2.72,2.72,0,0,0,2-2.7c0-1-.63-3.2-4.07-3.2h-6.53Z"/><path class="cls-1" d="M249.91,76.54c0-3.17,2.05-4,3.51-4s3.51.79,3.51,4-2.06,4-3.51,4S249.91,79.71,249.91,76.54Zm-2.7,0c0,5.32,4.5,6,6.21,6s6.2-.65,6.2-6-4.49-6-6.2-6S247.21,71.22,247.21,76.54Z"/><path class="cls-1" d="M264.48,76.16V72.83h2.15c1.67,0,2.37.46,2.37,1.57,0,.5,0,1.76-2,1.76Zm0,2h3.1c3.47,0,4.12-2.59,4.12-3.62,0-2.22-1.51-3.62-4-3.62h-5.91V82.21h2.7Z"/><path class="cls-1" d="M275.91,76.54c0-3.17,2-4,3.51-4s3.51.79,3.51,4-2.05,4-3.51,4S275.91,79.71,275.91,76.54Zm-2.7,0c0,5.32,4.5,6,6.21,6s6.21-.65,6.21-6-4.5-6-6.21-6S273.21,71.22,273.21,76.54Z"/><path class="cls-1" d="M290.49,80.15h6.42v2.06h-9.12V70.88h2.7Z"/><path class="cls-1" d="M301.27,82.21h-2.7V70.88h2.7Z"/><path class="cls-1" d="M309.28,82.21h-2.7V72.88h-3.91v-2h10.51v2h-3.9Z"/><path class="cls-1" d="M318.28,73.43h0l1.6,4.48h-3.29Zm-2.38,6.44h4.77l.83,2.34h2.93l-4.55-11.33h-3.11l-4.61,11.33H315Z"/><path class="cls-1" d="M334,70.88h2.52V82.21h-2.7l-5.27-8.08h0v8.08H326V70.88h2.85L334,78.77h0Z"/><path class="cls-1" d="M352.4,74.58c-.22-.68-.63-2-2.86-2-1.3,0-3.21.75-3.21,4,0,2,.92,3.86,3.21,3.86a2.68,2.68,0,0,0,2.86-2.13h2.7c-.54,2.47-2.38,4.19-5.62,4.19-3.43,0-5.9-2-5.9-6s2.61-6,5.94-6c3.87,0,5.43,2.34,5.58,4Z"/><path class="cls-1" d="M359.63,82.21h-2.7V70.88h2.7Z"/><path class="cls-1" d="M367.64,82.21h-2.7V72.88H361v-2h10.51v2h-3.91Z"/><path class="cls-1" d="M379.21,82.21h-2.7V77.93l-4.46-7.05h3.18l2.69,4.92,2.55-4.92h3.06L379.21,78Z"/></svg>