<svg width="1018" height="516" xmlns="http://www.w3.org/2000/svg" xmlns:xlink="http://www.w3.org/1999/xlink" overflow="hidden"><defs><clipPath id="clip0"><path d="M154 102 1172 102 1172 618 154 618Z" fill-rule="evenodd" clip-rule="evenodd"/></clipPath><clipPath id="clip1"><path d="M155 324 435 324 435 396 155 396Z" fill-rule="evenodd" clip-rule="evenodd"/></clipPath><clipPath id="clip2"><path d="M155 324 436 324 436 396 155 396Z" fill-rule="evenodd" clip-rule="evenodd"/></clipPath><clipPath id="clip3"><path d="M155 324 436 324 436 396 155 396Z" fill-rule="evenodd" clip-rule="evenodd"/></clipPath></defs><g clip-path="url(#clip0)" transform="translate(-154 -102)"><path d="M107.5 0C166.871-2.90274e-14 215 51.0395 215 114" stroke="#479122" stroke-width="4" stroke-miterlimit="8" fill="none" fill-rule="evenodd" transform="matrix(-4.37114e-08 1 1 4.37114e-08 336 305)"/><path d="M336 307.5C336 248.13 387.039 200 450 200" stroke="#DA1830" stroke-width="4" stroke-miterlimit="8" fill="none" fill-rule="evenodd"/><path d="M450.5 200.5C450.5 146.928 493.705 103.5 547 103.5 600.296 103.5 643.5 146.928 643.5 200.5 643.5 254.072 600.296 297.5 547 297.5 493.705 297.5 450.5 254.072 450.5 200.5Z" stroke="#DA1830" stroke-width="1.33333" stroke-miterlimit="8" fill="#DA1830" fill-rule="evenodd"/><text fill="#FFFFFF" font-family="Malgun Gothic,Malgun Gothic_MSFontService,sans-serif" font-weight="400" font-size="35" transform="translate(512.06 211)">출판</text><path d="M264 360C264 315.265 296.012 279 335.5 279 374.988 279 407 315.265 407 360 407 404.735 374.988 441 335.5 441 296.012 441 264 404.735 264 360Z" fill="#FFFFFF" fill-rule="evenodd"/><path d="M450.5 520.5C450.5 466.928 493.705 423.5 547 423.5 600.296 423.5 643.5 466.928 643.5 520.5 643.5 574.072 600.296 617.5 547 617.5 493.705 617.5 450.5 574.072 450.5 520.5Z" stroke="#479122" stroke-width="1.33333" stroke-miterlimit="8" fill="#479122" fill-rule="evenodd"/><text fill="#FFFFFF" font-family="Malgun Gothic,Malgun Gothic_MSFontService,sans-serif" font-weight="400" font-size="35" transform="translate(512.06 532)">교육</text><g clip-path="url(#clip1)"><g clip-path="url(#clip2)"><g clip-path="url(#clip3)"><path d="M0 24.6772C2.01778 24.6772 4.03556 24.7004 6.05334 24.6772 6.44762 24.6772 6.63316 24.7932 6.8187 25.1179 8.23347 27.7851 9.69462 30.4522 11.1326 33.1194 11.2253 33.2818 11.3181 33.4209 11.4573 33.6297 12.3618 31.9598 13.2431 30.3363 14.1245 28.6896 14.7739 27.4835 15.4464 26.2543 16.119 25.0483 16.235 24.8628 16.2814 24.6308 16.6061 24.654 18.7166 24.654 20.8272 24.654 23.0537 24.654 22.1956 26.0688 21.3838 27.3908 20.5721 28.736 18.5775 31.983 16.5597 35.2532 14.5651 38.5002 14.3564 38.848 14.2636 39.1959 14.2636 39.6134 14.2868 42.6749 14.2636 45.7131 14.2868 48.7746 14.2868 49.2616 14.1476 49.3544 13.707 49.3312 12.2458 49.308 10.8079 49.2848 9.34673 49.3312 8.7901 49.3544 8.72052 49.1689 8.72052 48.6586 8.74371 45.6436 8.72052 42.6517 8.74371 39.6366 8.74371 39.3351 8.74371 39.0336 8.55817 38.7321 5.77502 34.1399 3.01507 29.5477 0.231929 24.9323 0.115964 24.8859 0.0463857 24.8396 0 24.7932 0 24.7468 0 24.7004 0 24.6772Z" fill="#020202" transform="matrix(1 0 -0 1.00369 155.251 324)"/><path d="M163.255 71.7355C162.675 71.5964 162.095 71.5036 161.538 71.3413 161.121 71.2253 160.727 71.0397 160.355 70.831 158.454 69.7178 158.43 67.5608 160.286 66.378 161.562 65.5662 162.999 65.4271 164.461 65.4271 165.899 65.4271 167.36 65.5894 168.635 66.378 170.468 67.5144 170.468 69.6714 168.635 70.8078 168.311 70.9934 167.986 71.1325 167.638 71.2717 166.942 71.55 166.2 71.5268 165.504 71.7587 164.739 71.7355 163.997 71.7355 163.255 71.7355ZM164.739 70.3672C165.342 70.3672 166.246 70.2744 167.128 69.9961 167.267 69.9497 167.406 69.9033 167.522 69.8337 168.055 69.5786 168.473 69.2075 168.473 68.5813 168.473 67.9783 168.079 67.6072 167.568 67.3521 166.246 66.7027 164.855 66.7027 163.44 66.8186 162.628 66.8882 161.84 67.0042 161.144 67.468 160.24 68.0711 160.216 69.0916 161.121 69.6714 161.353 69.8105 161.608 69.9033 161.84 69.9961 162.698 70.2976 163.556 70.3672 164.739 70.3672Z" fill="#020202" transform="matrix(1 0 -0 1.00369 155.251 324)"/><path d="M225.18 0.0231929C225.481 0.0231929 225.667 0.0231929 225.829 0.0231929 229.865 0.0231929 233.9 0.0231929 237.936 0.0231929 238.307 0.0231929 238.515 0.139157 238.724 0.463857 242.342 6.44762 245.96 12.4314 249.602 18.4151 249.671 18.5311 249.764 18.6471 249.834 18.7862 250.042 18.7166 250.089 18.5079 250.181 18.3687 253.73 12.4314 257.278 6.494 260.804 0.556629 261.036 0.185543 261.244 5.14985e-16 261.708 0.0231929 265.326 0.0463857 268.944 0.0463857 272.563 0.0463857 272.748 0.0463857 272.934 0.0463857 273.212 0.0463857 272.47 1.25241 271.774 2.36567 271.078 3.47893 265.86 11.8284 260.618 20.201 255.4 28.5504 255.168 28.9215 255.052 29.3158 255.052 29.7564 255.075 36.0881 255.052 42.4198 255.075 48.7514 255.075 49.2153 254.982 49.3776 254.472 49.3776 250.97 49.3544 247.445 49.3544 243.943 49.3776 243.432 49.3776 243.34 49.2153 243.34 48.7514 243.363 42.3966 243.34 36.0417 243.363 29.7101 243.363 29.3158 243.27 28.9911 243.061 28.6664 237.24 19.3428 231.418 10.0193 225.597 0.695786 225.458 0.463857 225.342 0.301507 225.18 0.0231929Z" fill="#478018" transform="matrix(1 0 -0 1.00369 155.251 324)"/><path d="M97.2941 35.4851C98.129 36.1809 98.7088 36.8998 99.0103 37.8276 99.6134 39.7294 98.6856 41.8863 96.7838 43.0923 95.6474 43.8113 94.395 44.0664 93.0962 44.252 92.2148 44.368 91.3103 44.3911 90.4522 44.6231 89.9883 44.7622 89.5708 44.9478 89.5477 45.5044 89.5477 46.061 89.9883 46.2466 90.429 46.3857 91.519 46.7104 92.6787 46.7104 93.7919 46.8728 95.0908 47.0583 96.3432 47.2903 97.5492 47.8469 101.028 49.4936 100.843 53.8306 98.1754 55.6629 96.8998 56.5442 95.4618 56.9849 93.9543 57.1704 91.2871 57.4951 88.6199 57.4719 85.9992 56.7066 85.0482 56.4282 84.1437 56.034 83.3552 55.3846 81.2446 53.6219 81.3606 51.3026 83.6335 49.7719 84.5612 49.1457 85.6049 48.7746 86.8109 48.3803 85.5353 47.8701 84.6076 47.2207 84.8859 45.8059 85.1642 44.3216 86.463 44.1128 87.6226 43.7417 87.5531 43.533 87.3675 43.5794 87.2284 43.533 85.2338 42.9532 83.5639 41.9327 82.8913 39.8453 82.3115 38.0131 82.9377 36.4128 84.1205 35.0212 85.3961 33.5137 87.1124 32.7715 89.0606 32.586 91.8669 32.3077 94.6965 32.5164 97.526 32.47 98.129 32.4468 98.732 32.4932 99.3351 32.47 99.7061 32.4468 99.8917 32.5164 99.8685 32.9571 99.8221 33.8152 99.8453 34.6965 99.8685 35.5779 99.8685 35.9257 99.7757 35.9953 99.451 35.9257 98.8016 35.6938 98.129 35.5083 97.2941 35.4851ZM94.6733 38.3842C94.6733 37.6652 94.4414 37.1086 93.9543 36.5983 92.4236 34.998 89.1998 35.1604 87.8314 36.8998 87.066 37.8508 87.0428 39.0568 87.785 40.0541 88.9678 41.6544 91.5422 42.0487 93.2585 40.8658 94.1167 40.2628 94.6501 39.4743 94.6733 38.3842ZM91.3335 54.5032C91.7046 54.48 92.0989 54.48 92.4931 54.4337 93.5368 54.2713 94.5341 54.0162 95.2531 53.1812 95.9025 52.4391 95.7865 51.4882 94.998 50.9083 94.6037 50.63 94.163 50.4445 93.6992 50.3285 92.47 50.027 91.2175 50.0038 89.9883 50.0966 88.991 50.1894 88.0169 50.3517 87.2284 51.0475 86.3702 51.8129 86.4166 52.9725 87.3675 53.6219 87.7386 53.877 88.1561 54.0394 88.5967 54.1553 89.5013 54.4337 90.4058 54.4337 91.3335 54.5032Z" fill="#020202" transform="matrix(1 0 -0 1.00369 155.251 324)"/><path d="M198.16 34.8125C199.644 33.189 201.244 32.2149 203.401 32.3772 205.651 32.5396 206.857 33.908 207.669 35.8562 208.481 34.8357 209.246 33.8848 210.313 33.2354 213.745 31.1248 217.851 32.9803 218.5 36.9462 218.593 37.5261 218.639 38.1059 218.639 38.6857 218.639 42.0487 218.616 45.4116 218.662 48.7746 218.662 49.2616 218.546 49.3544 218.083 49.3544 216.876 49.3312 215.67 49.3312 214.464 49.3544 214.024 49.3776 213.885 49.2616 213.885 48.7978 213.908 45.6899 213.885 42.5821 213.908 39.4511 213.908 39.0104 213.861 38.5929 213.769 38.1523 213.467 36.5751 212.168 35.8098 210.614 36.2968 209.408 36.6911 208.411 38.0363 208.411 39.3119 208.411 42.4661 208.388 45.6204 208.434 48.7746 208.434 49.2616 208.295 49.3544 207.854 49.3312 206.625 49.308 205.396 49.308 204.167 49.3312 203.749 49.3312 203.657 49.2153 203.657 48.821 203.657 45.5972 203.657 42.3966 203.657 39.1727 203.657 38.7785 203.61 38.3842 203.517 38.0131 203.054 36.1809 201.152 35.5315 199.691 36.7607 198.786 37.5261 198.137 38.4306 198.16 39.7758 198.253 42.7908 198.183 45.7827 198.206 48.7978 198.206 49.2385 198.113 49.3544 197.673 49.3312 196.444 49.308 195.214 49.308 193.985 49.3312 193.521 49.3544 193.452 49.1921 193.452 48.7746 193.475 43.5562 193.475 38.361 193.452 33.1426 193.452 32.7715 193.521 32.6092 193.939 32.6092 195.214 32.6324 196.467 32.6324 197.742 32.6092 198.09 32.6092 198.206 32.7019 198.183 33.0498 198.137 33.6065 198.16 34.1399 198.16 34.8125Z" fill="#020202" transform="matrix(1 0 -0 1.00369 155.251 324)"/><path d="M181.832 32.6324C184.035 32.7019 186.61 33.5369 188.488 35.8562 189.973 37.6652 190.367 39.8222 190.251 42.0951 189.973 47.5686 185.775 49.7487 182.296 50.0966 179.722 50.3517 177.333 49.8879 175.268 48.3107 172.694 46.3625 171.813 43.649 172.045 40.5411 172.253 37.7348 173.506 35.4851 175.941 34.0007 177.518 33.0266 179.281 32.6092 181.832 32.6324ZM184.824 41.3761C184.847 40.17 184.708 38.9872 184.221 37.8508 183.641 36.5288 182.621 35.8098 181.183 35.8098 179.745 35.8098 178.655 36.5056 178.121 37.8276 177.17 40.1005 177.147 42.4661 178.052 44.7622 178.585 46.1074 179.629 46.896 181.113 46.9192 182.597 46.9424 183.664 46.177 184.267 44.8086 184.708 43.7417 184.847 42.5821 184.824 41.3761Z" fill="#020202" transform="matrix(1 0 -0 1.00369 155.251 324)"/><path d="M28.504 49.9574C25.257 49.8415 22.242 48.5891 20.6416 45.1797 18.2528 40.0309 20.5025 33.2818 27.6923 32.4932 30.3827 32.1917 32.8643 32.7251 34.998 34.395 37.5029 36.3432 38.2218 39.0568 38.0131 42.0719 37.8276 44.5767 36.8303 46.7104 34.7197 48.1716 32.9339 49.424 30.9625 49.9574 28.504 49.9574ZM25.1875 41.1905C25.1643 42.5125 25.3034 43.7417 25.9064 44.855 26.6254 46.2002 27.7387 46.8728 29.2694 46.7104 30.661 46.5713 31.5887 45.7595 32.0525 44.4607 32.8179 42.3038 32.8179 40.1237 32.0989 37.9667 31.6583 36.5983 30.7074 35.7402 29.1998 35.6242 27.6227 35.5315 26.4631 36.2505 25.8137 37.7116 25.3034 38.848 25.1643 40.0309 25.1875 41.1905Z" fill="#020202" transform="matrix(1 0 -0 1.00369 155.251 324)"/><path d="M67.9551 35.0212C68.9756 33.8848 70.0193 32.9803 71.4108 32.6092 74.913 31.6815 78.8326 33.3745 79.0645 37.874 79.25 41.5616 79.0877 45.2493 79.1341 48.9601 79.1341 49.2616 79.0413 49.3544 78.7398 49.3544 77.3018 49.3312 75.8639 49.3312 74.4491 49.3544 74.0084 49.3544 74.0548 49.1225 74.0548 48.8442 74.0548 45.5972 74.0548 42.3734 74.0548 39.1264 74.0548 38.5697 73.9621 38.0131 73.7997 37.4797 73.3127 36.0649 71.8515 35.4619 70.4135 36.0649 69.3003 36.5288 68.6045 37.4101 68.0247 38.4306 67.9087 38.6161 67.9551 38.848 67.9551 39.0336 67.9551 42.2806 67.9551 45.5508 67.9551 48.7978 67.9551 49.2385 67.8623 49.3544 67.4217 49.3312 66.0533 49.308 64.6849 49.308 63.3165 49.3312 62.9222 49.3312 62.8295 49.2385 62.8295 48.8442 62.8527 43.6026 62.8527 38.3378 62.8295 33.0962 62.8295 32.6787 62.9686 32.6324 63.3165 32.6324 64.6849 32.6556 66.0533 32.6556 67.4217 32.6324 67.8159 32.6324 67.9783 32.7019 67.9319 33.1194 67.9319 33.7224 67.9551 34.3022 67.9551 35.0212Z" fill="#020202" transform="matrix(1 0 -0 1.00369 155.251 324)"/><path d="M130.947 35.0212C131.666 34.2327 132.315 33.6297 133.081 33.1658 136.049 31.3799 141.639 32.3309 142.056 37.7348 142.335 41.492 142.103 45.2493 142.172 48.9833 142.172 49.2616 142.056 49.3312 141.801 49.3312 140.34 49.3312 138.902 49.308 137.441 49.3312 137 49.3312 137.047 49.1225 137.047 48.8442 137.047 45.6668 137.047 42.4893 137.047 39.3119 137.047 38.848 137 38.4074 136.931 37.9435 136.583 36.1809 135.006 35.3459 133.359 36.0649 132.269 36.5288 131.55 37.4101 131.017 38.4538 130.924 38.6625 130.947 38.848 130.947 39.0568 130.947 42.3038 130.947 45.5276 130.947 48.7746 130.947 49.1921 130.877 49.3312 130.413 49.3312 129.045 49.308 127.677 49.308 126.308 49.3312 125.937 49.3312 125.821 49.2616 125.821 48.8674 125.844 43.6258 125.844 38.361 125.821 33.1194 125.821 32.7251 125.914 32.6324 126.308 32.6324 127.7 32.6556 129.091 32.6556 130.483 32.6324 130.877 32.6324 130.97 32.7483 130.947 33.1194 130.924 33.6992 130.947 34.2559 130.947 35.0212Z" fill="#020202" transform="matrix(1 0 -0 1.00369 155.251 324)"/><path d="M53.0653 46.9656C52.2303 47.8005 51.4882 48.5195 50.5604 48.9833 46.5017 51.0011 41.9791 48.3339 41.9095 43.8345 41.8631 40.2396 41.8863 36.6679 41.8863 33.073 41.8863 32.7251 41.9791 32.6324 42.327 32.6324 43.649 32.6556 44.9942 32.6556 46.3162 32.6324 46.8264 32.6092 46.9656 32.7251 46.9656 33.2586 46.9424 36.3896 46.9424 39.5206 46.9656 42.6517 46.9656 43.1155 46.9656 43.5794 47.0815 44.0201 47.4758 45.8987 49.2385 46.7104 50.9547 45.7827 52.2303 45.0869 53.0653 44.0664 53.0421 42.4661 52.9957 39.4047 53.0421 36.32 53.0189 33.2586 53.0189 32.8179 53.0885 32.6092 53.5987 32.6324 54.9439 32.6787 56.2891 32.6556 57.6575 32.6324 58.0054 32.6324 58.1677 32.6556 58.1677 33.073 58.1445 38.3378 58.1445 43.6026 58.1677 48.8674 58.1677 49.2385 58.0517 49.308 57.7038 49.308 56.3123 49.2848 54.9207 49.2848 53.5291 49.308 53.1812 49.308 53.0653 49.2153 53.0885 48.8674 53.0885 48.2875 53.0653 47.7077 53.0653 46.9656Z" fill="#020202" transform="matrix(1 0 -0 1.00369 155.251 324)"/><path d="M169.563 44.9942C169.563 46.177 169.563 47.2903 169.563 48.4035 169.563 48.6354 169.47 48.7514 169.285 48.821 166.27 49.8879 163.208 50.2589 160.124 49.1689 156.505 47.8933 154.441 44.5071 154.72 40.6107 155.044 36.1113 158.407 32.8643 163.185 32.586 165.203 32.47 167.128 32.8875 169.006 33.5137 169.238 33.5833 169.308 33.7224 169.308 33.9775 169.308 35.114 169.308 36.2505 169.308 37.4565 168.427 37.0854 167.615 36.7375 166.71 36.552 164.924 36.2041 163.255 36.32 161.747 37.4797 160.263 38.6393 159.706 40.9818 160.402 43.046 161.028 44.9014 162.698 46.0378 164.646 46.1074 166.061 46.1538 167.383 45.7595 168.682 45.2957 168.983 45.2029 169.238 45.1101 169.563 44.9942Z" fill="#020202" transform="matrix(1 0 -0 1.00369 155.251 324)"/><path d="M110.746 33.8848C110.746 36.7607 110.931 39.6598 110.7 42.5357 110.352 47.0351 108.079 50.4677 104.066 52.6478 103.672 52.8565 103.463 52.8102 103.255 52.3927 103.023 51.9288 102.698 51.5345 102.42 51.0939 102.327 50.9315 102.234 50.8156 102.443 50.63 103.997 49.424 104.577 47.7077 105.017 45.8987 105.365 44.4143 105.458 42.8836 105.458 41.3529 105.458 36.0185 105.458 30.6842 105.458 25.3498 105.458 24.8396 105.528 24.6308 106.107 24.654 107.499 24.7004 108.891 24.6772 110.282 24.654 110.7 24.654 110.792 24.77 110.792 25.1643 110.746 28.0634 110.769 30.9857 110.746 33.8848 110.769 33.8848 110.746 33.8848 110.746 33.8848Z" fill="#020202" transform="matrix(1 0 -0 1.00369 155.251 324)"/><path d="M279.497 43.6954C279.497 47.0815 276.668 49.911 273.282 49.9342 269.803 49.9574 267.019 47.1279 267.019 43.5794 267.019 40.1237 269.803 37.4101 273.282 37.3637 276.598 37.3405 279.544 40.1932 279.497 43.6954Z" fill="#C80000" transform="matrix(1 0 -0 1.00369 155.251 324)"/><path d="M115.872 40.9818C115.872 38.361 115.872 35.7634 115.872 33.1426 115.872 32.7483 115.964 32.6324 116.382 32.6324 117.75 32.6556 119.119 32.6556 120.487 32.6324 120.835 32.6324 120.997 32.6556 120.997 33.073 120.974 38.3378 120.974 43.6026 120.997 48.8674 120.997 49.2153 120.904 49.308 120.557 49.308 119.165 49.2848 117.773 49.2848 116.382 49.308 115.964 49.308 115.872 49.1921 115.872 48.7978 115.872 46.2002 115.872 43.6026 115.872 40.9818Z" fill="#020202" transform="matrix(1 0 -0 1.00369 155.251 324)"/><path d="M213.954 65.2647C215.508 65.2647 217.062 65.2647 218.639 65.2647 219.01 65.2647 219.173 65.3111 219.173 65.7518 219.149 67.468 219.149 69.2075 219.173 70.9238 219.173 71.3181 219.057 71.434 218.686 71.3876 218.43 71.3644 218.198 71.3876 217.943 71.3876 217.851 71.3876 217.665 71.3876 217.688 71.2949 217.758 70.4831 217.132 70.8078 216.807 70.7846 214.812 70.7614 212.818 70.7614 210.823 70.7846 210.545 70.7846 210.197 70.6919 210.243 71.1789 210.267 71.3876 210.104 71.3876 209.942 71.3876 208.713 71.5268 208.689 71.5036 208.689 70.2744 208.689 68.79 208.713 67.2825 208.689 65.7982 208.689 65.4039 208.759 65.2647 209.2 65.2879 210.754 65.2879 212.354 65.2647 213.954 65.2647ZM214.024 66.6331C212.911 66.6331 211.774 66.6563 210.661 66.6331 210.313 66.6331 210.197 66.7259 210.22 67.0738 210.243 67.7232 210.243 68.3494 210.22 68.9988 210.197 69.3699 210.336 69.4394 210.684 69.4394 212.864 69.4162 215.044 69.4162 217.224 69.4394 217.595 69.4394 217.665 69.3235 217.665 68.9756 217.642 68.3262 217.642 67.7 217.665 67.0506 217.688 66.6795 217.549 66.6099 217.201 66.6099 216.134 66.6563 215.067 66.6331 214.024 66.6331Z" fill="#020202" transform="matrix(1 0 -0 1.00369 155.251 324)"/><path d="M183.224 63.8268C183.061 63.9659 182.969 64.0587 182.853 64.1747 181.809 65.0792 181.809 65.0792 180.742 64.1979 179.837 63.4325 179.211 62.4816 178.701 61.4147 178.631 61.2524 178.539 61.09 178.423 60.8349 177.936 61.8786 177.379 62.7831 176.66 63.5716 176.08 64.1979 175.408 64.7081 174.665 65.1024 174.364 65.2647 174.155 65.2879 173.946 64.9632 173.738 64.6617 173.459 64.3834 173.181 64.0587 174.41 63.5716 175.431 62.8991 176.196 61.8554 177.078 60.6725 177.449 59.3274 177.565 57.8662 177.588 57.5183 177.518 57.356 177.101 57.356 176.335 57.4023 175.57 57.356 174.805 57.3792 174.434 57.4023 174.248 57.3328 174.318 56.9153 174.341 56.7297 174.341 56.5442 174.318 56.3587 174.294 56.1035 174.387 56.0108 174.665 56.0108 177.17 56.0108 179.698 56.0108 182.203 56.0108 182.505 56.0108 182.597 56.1035 182.574 56.405 182.551 56.6138 182.551 56.8225 182.574 57.0313 182.621 57.356 182.458 57.4023 182.18 57.4023 181.345 57.3792 180.51 57.4255 179.698 57.3792 179.281 57.356 179.165 57.4951 179.211 57.8894 179.513 60.5798 180.626 62.6903 183.224 63.8268Z" fill="#020202" transform="matrix(1 0 -0 1.00369 155.251 324)"/><path d="M206.277 63.7804C208.713 63.4789 210.661 62.5048 212.052 60.3246 210.475 60.4406 209.06 60.5566 207.646 60.6493 207.367 60.6725 206.927 60.8117 206.834 60.603 206.672 60.2319 206.695 59.7448 206.672 59.3274 206.672 59.1186 206.88 59.1882 207.02 59.1882 208.736 59.1882 210.452 59.049 212.168 58.9331 212.655 58.9099 213.282 58.0286 213.142 57.5647 213.073 57.3096 212.864 57.4487 212.725 57.4487 211.125 57.4487 209.524 57.4023 207.924 57.4487 207.344 57.4719 207.298 57.2168 207.321 56.7529 207.344 56.3587 207.228 56.0108 207.901 56.034 210.081 56.0803 212.261 56.0572 214.441 56.0572 214.743 56.0572 214.975 56.034 214.882 56.4514 214.348 59.3505 213.258 61.9481 210.754 63.734 209.826 64.3834 208.782 64.8241 207.692 65.1488 207.391 65.2415 207.205 65.2183 207.043 64.94 206.811 64.5689 206.556 64.221 206.277 63.7804Z" fill="#020202" transform="matrix(1 0 -0 1.00369 155.251 324)"/><path d="M194.449 56.0572C195.655 56.0572 196.861 56.0803 198.067 56.0572 198.438 56.0572 198.624 56.1267 198.554 56.521 198.531 56.6602 198.531 56.8225 198.554 56.9617 198.624 57.3328 198.485 57.4487 198.09 57.4487 196.188 57.4255 194.31 57.4487 192.408 57.4255 191.944 57.4255 191.805 57.5183 191.828 58.0054 191.875 59.2114 191.851 60.4174 191.828 61.6234 191.828 61.9713 191.921 62.0873 192.269 62.0873 194.588 62.0409 196.907 61.8554 199.227 61.6234 199.598 61.5771 199.667 61.6466 199.737 61.9945 199.876 62.9918 199.899 62.9918 198.879 63.0614 196.188 63.2469 193.498 63.4325 190.808 63.5021 190.437 63.5021 190.321 63.4093 190.321 63.015 190.344 60.8349 190.344 58.6548 190.321 56.4746 190.321 56.1499 190.413 56.0572 190.738 56.0572 191.944 56.0572 193.197 56.0572 194.449 56.0572Z" fill="#020202" transform="matrix(1 0 -0 1.00369 155.251 324)"/><path d="M165.017 59.7448C165.017 61.925 163.649 63.5485 161.608 63.7804 159.358 64.0355 157.688 62.8527 157.201 60.6261 156.714 58.446 157.943 56.1731 159.915 55.7093 163.023 55.0135 165.133 57.124 165.017 59.7448ZM163.51 59.6984C163.51 57.7038 162.049 56.4978 160.286 57.0313 159.08 57.4023 158.361 58.9331 158.686 60.3942 158.941 61.4843 159.637 62.2497 160.541 62.3888 162.257 62.6903 163.51 61.5307 163.51 59.6984Z" fill="#020202" transform="matrix(1 0 -0 1.00369 155.251 324)"/><path d="M146.161 46.4089C146.185 44.7158 147.553 43.3243 149.246 43.3475 150.893 43.3707 152.284 44.8086 152.284 46.5017 152.284 48.2412 150.893 49.6095 149.177 49.6095 147.437 49.5863 146.138 48.218 146.161 46.4089Z" fill="#020202" transform="matrix(1 0 -0 1.00369 155.251 324)"/><path d="M115.616 27.2516C115.616 25.6513 116.822 24.3989 118.4 24.3989 119.954 24.3989 121.206 25.6513 121.229 27.2284 121.229 28.8055 119.93 30.1507 118.4 30.1275 116.846 30.1275 115.616 28.8519 115.616 27.2516Z" fill="#020202" transform="matrix(1 0 -0 1.00369 155.251 324)"/><path d="M203.517 70.1584C202.358 71.666 202.891 71.6891 201.059 70.7846 199.644 70.0888 198.485 69.0684 197.603 67.6536 196.629 69.5554 195.098 70.6919 193.173 71.3876 192.733 71.55 192.478 71.55 192.246 71.1093 192.083 70.8078 191.851 70.5527 191.596 70.2048 192.733 69.9497 193.776 69.625 194.681 68.9292 195.864 68.0247 196.536 66.7954 196.791 65.3343 196.838 65.0792 196.861 64.8009 197.209 64.8936 197.557 64.9864 198.067 64.5921 198.229 65.2415 198.879 67.8391 200.688 69.2539 203.146 69.9961 203.216 70.0193 203.309 70.0425 203.378 70.0656 203.425 70.0888 203.471 70.112 203.517 70.1584Z" fill="#020202" transform="matrix(1 0 -0 1.00369 155.251 324)"/><path d="M169.749 60.3478C169.749 61.8554 169.725 63.3861 169.749 64.8936 169.749 65.2879 169.656 65.4271 169.238 65.4039 168.218 65.3807 168.218 65.4039 168.218 64.4066 168.218 63.85 168.195 63.2933 168.218 62.7367 168.241 62.3656 168.102 62.296 167.754 62.296 167.128 62.3192 166.502 62.296 165.875 62.3192 165.574 62.3192 165.435 62.2728 165.435 61.925 165.435 61.0436 165.412 61.0436 166.316 61.0436 166.339 61.0436 166.362 61.0436 166.386 61.0436 168.357 61.0436 168.357 61.0436 168.218 59.049 168.195 58.7707 168.102 58.7011 167.847 58.7011 167.197 58.7243 166.548 58.6779 165.922 58.7243 165.574 58.7475 165.458 58.6548 165.458 58.2837 165.458 57.3792 165.435 57.3792 166.339 57.3792 166.942 57.3792 167.731 57.5879 168.102 57.3096 168.496 57.0081 168.195 56.1731 168.218 55.5933 168.218 55.2918 168.311 55.2222 168.612 55.2222 169.749 55.199 169.749 55.1758 169.749 56.2891 169.749 57.6111 169.749 58.9795 169.749 60.3478Z" fill="#020202" transform="matrix(1 0 -0 1.00369 155.251 324)"/><path d="M181.159 70.9934C179.513 70.9934 177.889 70.9702 176.243 70.9934 175.802 70.9934 175.686 70.8774 175.709 70.4367 175.732 69.1611 175.732 67.8623 175.709 66.5867 175.709 66.2156 175.779 66.0997 176.173 66.0997 177.217 66.1229 177.217 66.0997 177.217 67.1202 177.217 67.7927 177.24 68.4421 177.217 69.1147 177.193 69.5322 177.333 69.625 177.727 69.625 180.487 69.6018 183.247 69.6482 186.007 69.6018 186.726 69.5786 186.54 69.9729 186.587 70.3672 186.61 70.7846 186.563 71.0166 186.03 71.0166 184.383 70.9702 182.76 70.9934 181.159 70.9934Z" fill="#020202" transform="matrix(1 0 -0 1.00369 155.251 324)"/><path d="M200.92 60.5334C200.92 58.9099 200.943 57.3096 200.92 55.6861 200.92 55.2686 201.036 55.1758 201.43 55.1758 202.427 55.199 202.427 55.1758 202.451 56.1731 202.451 57.3096 202.497 58.446 202.497 59.5825 202.497 59.9304 202.566 60.0695 202.938 60.0463 203.332 60.0231 203.726 60.0695 204.12 60.0231 204.584 59.9768 204.723 60.1391 204.7 60.603 204.654 61.3915 204.7 61.3915 203.865 61.3915 202.52 61.3915 202.52 61.3915 202.52 62.7135 202.52 63.5948 202.497 64.4994 202.52 65.3807 202.543 65.7982 202.404 65.8909 201.987 65.8909 200.943 65.8677 200.943 65.8909 200.943 64.8704 200.92 63.4325 200.92 61.9945 200.92 60.5334Z" fill="#020202" transform="matrix(1 0 -0 1.00369 155.251 324)"/><path d="M186.1 61.5307C186.1 63.4093 186.076 65.3111 186.123 67.1897 186.123 67.7 185.96 67.8391 185.497 67.7696 185.357 67.7464 185.195 67.7464 185.056 67.7696 184.662 67.8391 184.569 67.6768 184.592 67.2825 184.615 63.4093 184.615 59.5361 184.592 55.6629 184.592 55.2222 184.731 55.1526 185.125 55.1758 186.123 55.199 186.123 55.1758 186.123 56.1963 186.1 57.959 186.1 59.7448 186.1 61.5307Z" fill="#020202" transform="matrix(1 0 -0 1.00369 155.251 324)"/><path d="M219.149 59.8608C219.149 61.2524 219.126 62.6439 219.149 64.0355 219.149 64.4298 219.057 64.5457 218.639 64.5457 217.642 64.5226 217.642 64.5457 217.642 63.5485 217.642 62.8295 217.619 62.0873 217.642 61.3683 217.665 61.0204 217.549 60.9045 217.201 60.9277 216.389 60.9509 215.578 60.9045 214.766 60.9509 214.209 60.974 214.372 60.603 214.372 60.3246 214.395 60.0695 214.117 59.6289 214.743 59.6521 215.555 59.6752 216.366 59.6521 217.178 59.6752 217.526 59.6752 217.642 59.5825 217.642 59.2346 217.619 58.0517 217.642 56.8689 217.619 55.6861 217.619 55.315 217.688 55.199 218.083 55.199 219.126 55.2222 219.126 55.199 219.126 56.2195 219.149 57.4255 219.149 58.6548 219.149 59.8608Z" fill="#020202" transform="matrix(1 0 -0 1.00369 155.251 324)"/></g></g></g><text fill="#0D0D0D" font-family="Malgun Gothic,Malgun Gothic_MSFontService,sans-serif" font-weight="700" font-size="24" transform="translate(672.843 195)">IT &amp; 컴퓨터, IT <tspan x="175.833" y="0">자격증</tspan>, <tspan x="262.667" y="0">실용</tspan>, <tspan x="325.5" y="0">요리</tspan>,<tspan x="0" y="28">아</tspan>동, <tspan x="62.8333" y="28">경영</tspan>/경제, <tspan x="184.167" y="28">소설</tspan>, <tspan x="247" y="28">어학</tspan>, <tspan x="309.833" y="28">교과서</tspan><tspan x="390.333" y="28">등</tspan><tspan fill="#262626" x="-0.416687" y="320">IT</tspan><tspan fill="#262626" x="29.5833" y="320">실무역량</tspan><tspan fill="#262626" x="125.583" y="320">, Digital </tspan><tspan fill="#262626" x="223.917" y="320">Liferacy</tspan><tspan fill="#262626" x="310.657" y="320">,</tspan><tspan fill="#262626" x="325.49" y="320">우편원격훈련</tspan><tspan fill="#262626" x="469.49" y="320">, </tspan><tspan fill="#262626" x="-0.416687" y="348">IT </tspan><tspan fill="#262626" x="29.5833" y="348">온라인</tspan><tspan fill="#262626" x="110.083" y="348">강의</tspan><tspan fill="#262626" x="158.083" y="348">, Contents </tspan><tspan fill="#262626" x="283.477" y="348">Procider</tspan></text></g></svg>